<?xml version="1.0" encoding="utf-8"?>
<!-- Generator: Adobe Illustrator 27.2.0, SVG Export Plug-In . SVG Version: 6.00 Build 0)  -->
<svg version="1.1" xmlns="http://www.w3.org/2000/svg" xmlns:xlink="http://www.w3.org/1999/xlink" x="0px" y="0px"
	 viewBox="0 0 2200 2200" style="enable-background:new 0 0 2200 2200;" xml:space="preserve">
<style type="text/css">
	.st0{fill:#3EB2F9;}
</style>
<g id="background">
</g>
<g id="objects">
	<path class="st0" d="M1100,155.52L1100,155.52c-521.62,0-944.48,422.86-944.48,944.48v0c0,521.62,422.86,944.48,944.48,944.48h0
		c521.62,0,944.48-422.86,944.48-944.48v0C2044.48,578.38,1621.62,155.52,1100,155.52z M1379.83,1026.73l-15.74,126.34
		c-2.65,21.13-20.53,36.99-41.72,36.99h-204.65v528.28c-21.6,1.96-43.46,2.93-65.57,2.93c-49.42,0-97.7-4.95-144.35-14.35v-516.87
		h-157.4c-14.44,0-26.24-11.86-26.24-26.33v-158.1c0-14.48,11.8-26.33,26.24-26.33h157.4V742.17
		c0-145.51,117.48-263.46,262.39-263.46h183.64c14.44,0,26.24,11.86,26.24,26.33v158.1c0,14.48-11.8,26.33-26.24,26.33h-131.2
		c-57.93,0-104.93,47.18-104.93,105.4V979.3h220.38C1363.4,979.3,1382.95,1001.56,1379.83,1026.73z"/>
</g>
</svg>
