<?xml version="1.0" encoding="utf-8"?>
<!-- Generator: Adobe Illustrator 27.2.0, SVG Export Plug-In . SVG Version: 6.00 Build 0)  -->
<svg version="1.1" xmlns="http://www.w3.org/2000/svg" xmlns:xlink="http://www.w3.org/1999/xlink" x="0px" y="0px"
	 viewBox="0 0 2200 2200" style="enable-background:new 0 0 2200 2200;" xml:space="preserve">
<style type="text/css">
	.st0{fill:#3EB2F9;}
</style>
<g id="background">
</g>
<g id="objects">
	<g>
		<path class="st0" d="M1115.47,611.85c-248.02,0-449.87,201.85-449.87,449.87c0,90.17,26.6,174.08,72.37,244.49l-48.31,181.32
			l181.32-48.31c5.87,3.91,11.93,7.63,18.19,11.15c66.5,38.92,143.76,61.22,226.3,61.22c248.02,0,449.87-201.85,449.87-449.87
			S1363.49,611.85,1115.47,611.85z M1382.27,1259.76c-7.84,11.77-16.08,22.75-29.22,35.89c-28.83,28.83-68.83,43.34-109.43,39.22
			c-72.76-7.45-176.1-47.65-264.94-136.29c-88.84-88.84-129.04-192.18-136.29-264.94c-4.12-40.59,10.39-80.6,39.22-109.43
			c13.14-13.14,24.12-21.38,35.89-29.42c21.77-14.71,51.38-4.9,59.62,19.81l29.81,89.42c8.24,24.51,4.51,40.01-6.08,50.4
			l-23.74,23.94c-11.77,11.77-13.73,30-4.71,44.12c13.14,20.59,37.85,53.54,83.35,99.03c45.5,45.5,78.44,70.21,99.03,83.34
			c14.12,9.02,32.36,7.06,44.12-4.71l23.94-23.74c10.39-10.59,25.89-14.32,50.4-6.08l89.42,29.81
			C1387.36,1208.38,1397.17,1237.99,1382.27,1259.76z"/>
		<path class="st0" d="M1100,155.52L1100,155.52c-521.62,0-944.48,422.86-944.48,944.48v0c0,521.62,422.86,944.48,944.48,944.48h0
			c521.62,0,944.48-422.86,944.48-944.48v0C2044.48,578.38,1621.62,155.52,1100,155.52z M1682.26,1084.24
			c-11.26,291.32-248.44,530.6-539.66,544.08c-104.37,4.83-202.74-18.36-288.44-63.14h-0.2l-283.79,63.37
			c-12.84,2.68-24.21-8.69-21.53-21.53l63.37-283.79c-45.1-86.31-68.29-185.71-63.03-290.86c14.61-291.69,255.7-528.1,547.6-537.58
			C1426.07,484.11,1695.02,754.3,1682.26,1084.24z"/>
	</g>
	<path class="st0" d="M1100,2468L1100,2468c-521.62,0-944.48,422.86-944.48,944.48v0c0,521.62,422.86,944.48,944.48,944.48h0
		c521.62,0,944.48-422.86,944.48-944.48v0C2044.48,2890.86,1621.62,2468,1100,2468z M1379.83,3339.21l-15.74,126.34
		c-2.65,21.13-20.53,36.99-41.72,36.99h-204.65v528.28c-21.6,1.96-43.46,2.93-65.57,2.93c-49.42,0-97.7-4.95-144.35-14.35v-516.87
		h-157.4c-14.44,0-26.24-11.86-26.24-26.33v-158.1c0-14.48,11.79-26.33,26.24-26.33h157.4v-237.13
		c0-145.51,117.48-263.46,262.39-263.46h183.64c14.44,0,26.24,11.86,26.24,26.33v158.1c0,14.48-11.8,26.33-26.24,26.33h-131.2
		c-57.93,0-104.93,47.18-104.93,105.4v184.43h220.38C1363.4,3291.78,1382.95,3314.04,1379.83,3339.21z"/>
	<g>
		<path class="st0" d="M3911.68,657.48h-478.33c-94.3,0-170.83,76.53-170.83,170.83v478.33c0,94.3,76.53,170.83,170.83,170.83
			h478.33c94.3,0,170.83-76.53,170.83-170.83V828.31C4082.52,734.01,4005.98,657.48,3911.68,657.48z M3673,1323.72
			c-141.45,0-256.25-114.8-256.25-256.25c0-141.45,114.8-256.25,256.25-256.25c141.45,0,256.25,114.8,256.25,256.25
			C3929.25,1208.92,3814.45,1323.72,3673,1323.72z M3946.34,845.39c-28.26,0-51.25-22.99-51.25-51.25s22.99-51.25,51.25-51.25
			c28.26,0,51.25,22.99,51.25,51.25S3974.59,845.39,3946.34,845.39z"/>
		<circle class="st0" cx="3673" cy="1067.47" r="170.83"/>
		<path class="st0" d="M3672.52,123L3672.52,123c-521.62,0-944.48,422.86-944.48,944.48v0c0,521.62,422.86,944.48,944.48,944.48h0
			c521.62,0,944.48-422.86,944.48-944.48v0C4617,545.86,4194.14,123,3672.52,123z M4167.93,1323.72
			c0,132.05-107.11,239.16-239.16,239.16h-512.5c-132.05,0-239.16-107.11-239.16-239.16v-512.5
			c0-132.05,107.11-239.16,239.16-239.16h512.5c132.05,0,239.16,107.11,239.16,239.16V1323.72z"/>
	</g>
</g>
</svg>
