<?xml version="1.0" encoding="utf-8"?>
<!-- Generator: Adobe Illustrator 27.2.0, SVG Export Plug-In . SVG Version: 6.00 Build 0)  -->
<svg version="1.1" id="Camada_1" xmlns="http://www.w3.org/2000/svg" xmlns:xlink="http://www.w3.org/1999/xlink" x="0px" y="0px"
	 viewBox="0 0 511.28 591.02" style="enable-background:new 0 0 511.28 591.02;" xml:space="preserve">
<style type="text/css">
	.st0{fill:url(#SVGID_1_);}
	.st1{fill:url(#SVGID_00000181778590326938066090000008018129588643968907_);}
	.st2{fill:url(#SVGID_00000132799774037950838860000010511872044527123336_);}
	.st3{fill:url(#SVGID_00000108304253003533064480000015639798430028209312_);}
	.st4{fill:url(#SVGID_00000109745983648176437140000005170975018727724946_);}
	.st5{fill:url(#SVGID_00000044158352058194171860000001070893492035013508_);}
	.st6{fill:url(#SVGID_00000011711676954486972970000005506727606116769666_);}
	.st7{opacity:0.4;fill:#FFFFFF;enable-background:new    ;}
	.st8{fill:#FFFFFF;}
	.st9{clip-path:url(#SVGID_00000054256970080981004670000010623666004285981576_);}
	.st10{fill:url(#SVGID_00000138549245405749756720000014156087079597598621_);}
	.st11{fill:url(#SVGID_00000024700881175001884440000000426127061654270851_);}
	.st12{opacity:0.4;fill:#FDCBA3;enable-background:new    ;}
	.st13{fill:url(#SVGID_00000034049175388745715920000004697073557686573473_);}
	.st14{fill:url(#SVGID_00000142136352470292912230000004017264355860546461_);}
	.st15{fill:url(#SVGID_00000020367526143519907940000006062506882089165713_);}
	.st16{fill:#FBB480;}
	.st17{fill:url(#SVGID_00000180355065998207388010000017884788991197651118_);}
	.st18{fill:url(#SVGID_00000156572420976842384450000013929920437100467358_);}
	.st19{clip-path:url(#SVGID_00000118382621849864894520000013271450894351040693_);}
	.st20{fill:url(#SVGID_00000008142615572203550770000015788503052652833153_);}
	.st21{fill:url(#SVGID_00000062906964751324238870000008465727483957579139_);}
	.st22{fill:url(#SVGID_00000097491523855194699810000012631982184232948888_);}
	.st23{fill:url(#SVGID_00000057857865994671280000000010542966624964465854_);}
	.st24{fill:url(#SVGID_00000000918441160640480900000012544309632010388631_);}
	.st25{fill:url(#SVGID_00000027582001672117979820000002591072856995239300_);}
	.st26{clip-path:url(#SVGID_00000152223349886625634230000002408385937862373774_);}
	.st27{fill:url(#SVGID_00000124846260918188547580000003026375954863478673_);}
	.st28{fill:url(#SVGID_00000055688907796305606870000010728220548332368778_);}
	.st29{fill:url(#SVGID_00000152984262259239904390000018091008259339143298_);}
	.st30{fill:url(#SVGID_00000155105535068779113330000006157288949063295661_);}
	.st31{fill:url(#SVGID_00000029046107621748206340000004818546876564914359_);}
	.st32{fill:url(#SVGID_00000021803475452391713370000016640903578861732755_);}
	.st33{opacity:0.5;fill:#FFFFFF;enable-background:new    ;}
	.st34{fill:url(#SVGID_00000088817108246174048450000010743497719261296012_);}
	.st35{fill:url(#SVGID_00000065046618707077191230000005734285467241300618_);}
	.st36{fill:url(#SVGID_00000078723492460154497790000011143905914445648283_);}
	.st37{fill:url(#SVGID_00000114073417060827507890000010780906512464480664_);}
	.st38{fill:url(#SVGID_00000160903473552540968240000011277812038664975011_);}
	.st39{fill:url(#SVGID_00000039814094731489774200000009769703927964387232_);}
	.st40{fill:url(#SVGID_00000171694410463844804750000004862549817029361852_);}
	.st41{fill:url(#SVGID_00000034791210287681896830000012738585503949296526_);}
	.st42{fill:url(#SVGID_00000027576215285641335150000012122789710442062978_);}
	.st43{fill:#16A085;}
	.st44{fill:url(#SVGID_00000114796411811337888520000007129215215173308807_);}
	.st45{fill:url(#SVGID_00000120541495316390485170000007613937424860682669_);}
	.st46{fill:url(#SVGID_00000020394813261890784660000003949032486887277743_);}
	.st47{fill:url(#SVGID_00000021828598091987381160000007531833945771014798_);}
	.st48{fill:url(#SVGID_00000124843142678723760080000015729831720263701429_);}
	.st49{fill:url(#SVGID_00000139270447561401866170000013193571959212486558_);}
</style>
<g>
	<g>
		
			<linearGradient id="SVGID_1_" gradientUnits="userSpaceOnUse" x1="273.8991" y1="302.5949" x2="499.1454" y2="302.5949" gradientTransform="matrix(0.958 0.2868 0.2868 -0.958 -246.9539 517.8909)">
			<stop  offset="0" style="stop-color:#414042"/>
			<stop  offset="0.486" style="stop-color:#343234"/>
			<stop  offset="1" style="stop-color:#231F20"/>
		</linearGradient>
		<path class="st0" d="M258.92,568.5c-2.66,8.88-12.09,13.96-20.97,11.31L54.46,524.86c-8.88-2.66-13.96-12.09-11.31-20.97
			l118.17-394.67c2.66-8.88,12.09-13.96,20.97-11.31l183.49,54.94c8.88,2.66,13.96,12.09,11.31,20.97L258.92,568.5z"/>
		<g>
			<g>
				
					<linearGradient id="SVGID_00000063615807768145836110000004950618740684215998_" gradientUnits="userSpaceOnUse" x1="366.1057" y1="107.3325" x2="396.095" y2="107.3325" gradientTransform="matrix(0.958 0.2868 0.2868 -0.958 -246.9539 517.8909)">
					<stop  offset="0" style="stop-color:#58595B"/>
					<stop  offset="0.3641" style="stop-color:#797A7C"/>
					<stop  offset="1" style="stop-color:#BBBDBF"/>
				</linearGradient>
				<path style="fill:url(#SVGID_00000063615807768145836110000004950618740684215998_);" d="M144.62,538.73
					c-7.92-2.37-12.43-10.74-10.06-18.67c2.37-7.92,10.75-12.43,18.66-10.06c7.92,2.37,12.44,10.75,10.07,18.66
					C160.92,536.59,152.54,541.1,144.62,538.73z M152.67,511.83c-6.91-2.07-14.21,1.87-16.28,8.78c-2.07,6.91,1.87,14.21,8.78,16.28
					s14.21-1.87,16.28-8.78C163.52,521.21,159.59,513.9,152.67,511.83z"/>
			</g>
			<g>
				
					<linearGradient id="SVGID_00000024701087642219013450000004536616016098116523_" gradientUnits="userSpaceOnUse" x1="350.9701" y1="513.8923" x2="422.1005" y2="513.8923" gradientTransform="matrix(0.958 0.2868 0.2868 -0.958 -246.9539 517.8909)">
					<stop  offset="0" style="stop-color:#414042"/>
					<stop  offset="0.7268" style="stop-color:#606163"/>
					<stop  offset="1" style="stop-color:#6D6E71"/>
				</linearGradient>
				<path style="fill:url(#SVGID_00000024701087642219013450000004536616016098116523_);" d="M304.71,146.95
					c-0.29,0.99-1.35,1.55-2.33,1.25l-64.55-19.33c-0.99-0.3-1.55-1.34-1.26-2.33l0.18-0.6c0.3-0.99,1.34-1.55,2.33-1.26
					l64.55,19.33c0.98,0.29,1.55,1.34,1.26,2.33L304.71,146.95z"/>
				
					<linearGradient id="SVGID_00000072959327233659580720000012555763509702867092_" gradientUnits="userSpaceOnUse" x1="431.2508" y1="513.6196" x2="436.1481" y2="513.6196" gradientTransform="matrix(0.958 0.2868 0.2868 -0.958 -246.9539 517.8909)">
					<stop  offset="0" style="stop-color:#414042"/>
					<stop  offset="0.7268" style="stop-color:#606163"/>
					<stop  offset="1" style="stop-color:#6D6E71"/>
				</linearGradient>
				<path style="fill:url(#SVGID_00000072959327233659580720000012555763509702867092_);" d="M318.17,150.93
					c-0.39,1.3-1.75,2.03-3.05,1.64s-2.03-1.75-1.64-3.05c0.39-1.3,1.75-2.03,3.05-1.64C317.82,148.27,318.56,149.64,318.17,150.93z
					"/>
			</g>
		</g>
	</g>
	
		<linearGradient id="SVGID_00000003827149448841464690000008833401780227765388_" gradientUnits="userSpaceOnUse" x1="280.7793" y1="472.4467" x2="471.9513" y2="185.6891" gradientTransform="matrix(0.958 0.2868 0.2868 -0.958 -246.9539 517.8909)">
		<stop  offset="0" style="stop-color:#A4D3D2"/>
		<stop  offset="0.2209" style="stop-color:#8EC9CA"/>
		<stop  offset="1" style="stop-color:#43A6B0"/>
	</linearGradient>
	<polygon style="fill:url(#SVGID_00000003827149448841464690000008833401780227765388_);" points="259.26,527.08 65.64,469.11 
		167.43,129.13 361.05,187.1 	"/>
</g>
<g>
	<g>
		
			<linearGradient id="SVGID_00000103964965510566018130000007260108967378180284_" gradientUnits="userSpaceOnUse" x1="296.3274" y1="313.2109" x2="476.6134" y2="313.2109" gradientTransform="matrix(0.958 0.2868 0.2868 -0.958 -246.9539 517.8909)">
			<stop  offset="0" style="stop-color:#B1EDE0"/>
			<stop  offset="1" style="stop-color:#7CE0CB"/>
		</linearGradient>
		<path style="fill:url(#SVGID_00000103964965510566018130000007260108967378180284_);" d="M305.23,308.44
			c4.06,1.21,6.38,5.53,5.17,9.58l-21.86,73.01c-1.21,4.06-5.53,6.38-9.58,5.17L121,348.9c-4.06-1.21-6.38-5.53-5.17-9.58l21.86-73
			c1.21-4.06,5.53-6.38,9.58-5.17L305.23,308.44z"/>
		<g>
			<g>
				<g>
					
						<linearGradient id="SVGID_00000048469541137331768550000004815985474642250643_" gradientUnits="userSpaceOnUse" x1="390.7909" y1="332.1614" x2="402.0951" y2="332.1614" gradientTransform="matrix(0.958 0.2868 0.2868 -0.958 -246.9539 517.8909)">
						<stop  offset="0" style="stop-color:#FFFFFF"/>
						<stop  offset="0.1996" style="stop-color:#FDF9B0"/>
						<stop  offset="0.3804" style="stop-color:#FBF46C"/>
						<stop  offset="0.5514" style="stop-color:#F6E159"/>
						<stop  offset="1" style="stop-color:#E9B12A"/>
					</linearGradient>
					<polygon style="fill:url(#SVGID_00000048469541137331768550000004815985474642250643_);" points="229.63,308.22 229.73,312.54 
						233.87,313.78 229.8,315.21 229.9,319.53 227.28,316.09 223.2,317.53 225.66,313.97 223.04,310.54 227.17,311.78 					"/>
					<polygon class="st7" points="242.87,312.19 242.98,316.51 247.11,317.75 243.04,319.18 243.14,323.5 240.52,320.06 
						236.44,321.49 238.9,317.94 236.28,314.5 240.42,315.74 					"/>
					<polygon class="st7" points="256.12,316.15 256.22,320.47 260.36,321.71 256.28,323.14 256.38,327.46 253.76,324.03 
						249.69,325.46 252.15,321.9 249.52,318.47 253.66,319.71 					"/>
					<polygon class="st7" points="269.36,320.12 269.47,324.44 273.61,325.68 269.53,327.11 269.63,331.43 267.01,327.99 
						262.93,329.42 265.39,325.87 262.77,322.43 266.91,323.67 					"/>
					<polygon class="st7" points="282.61,324.09 282.71,328.4 286.85,329.64 282.78,331.07 282.87,335.39 280.25,331.96 
						276.18,333.39 278.64,329.83 276.02,326.4 280.15,327.64 					"/>
				</g>
				<g>
					<g>
						<g>
							<path class="st8" d="M250.37,340.25c-0.12,0.42-0.57,0.65-0.98,0.53l-37.87-11.34c-0.42-0.12-0.65-0.57-0.53-0.98l0.2-0.68
								c0.12-0.42,0.57-0.65,0.98-0.53l37.87,11.34c0.42,0.12,0.65,0.57,0.53,0.98L250.37,340.25z"/>
						</g>
						<g>
							<path class="st8" d="M263.68,344.23c-0.12,0.42-0.57,0.65-0.98,0.53l-9.81-2.94c-0.42-0.12-0.65-0.57-0.53-0.98l0.2-0.68
								c0.12-0.42,0.57-0.65,0.98-0.53l9.81,2.94c0.42,0.12,0.65,0.57,0.53,0.98L263.68,344.23z"/>
						</g>
						<g>
							<path class="st8" d="M287.07,351.23c-0.12,0.42-0.57,0.65-0.98,0.53l-20.04-6c-0.42-0.12-0.65-0.57-0.53-0.98l0.2-0.68
								c0.12-0.42,0.57-0.65,0.98-0.53l20.04,6c0.42,0.12,0.65,0.57,0.53,0.98L287.07,351.23z"/>
						</g>
					</g>
					<g>
						<g>
							<path class="st8" d="M240.03,343.8c-0.12,0.42-0.57,0.65-0.98,0.53l-29.35-8.79c-0.42-0.12-0.65-0.57-0.53-0.98l0.2-0.67
								c0.12-0.42,0.57-0.65,0.98-0.53l29.35,8.79c0.42,0.12,0.65,0.57,0.53,0.98L240.03,343.8z"/>
						</g>
						<g>
							<path class="st8" d="M254.49,348.13c-0.12,0.42-0.57,0.65-0.98,0.53l-10.97-3.28c-0.42-0.12-0.65-0.57-0.53-0.98l0.2-0.67
								c0.12-0.42,0.57-0.65,0.98-0.53l10.97,3.28c0.42,0.12,0.65,0.57,0.53,0.98L254.49,348.13z"/>
						</g>
						<g>
							<path class="st8" d="M285.24,357.34c-0.12,0.42-0.57,0.65-0.98,0.53l-27.4-8.2c-0.42-0.12-0.65-0.57-0.53-0.98l0.2-0.67
								c0.12-0.42,0.57-0.65,0.98-0.53l27.4,8.2c0.42,0.12,0.65,0.57,0.53,0.98L285.24,357.34z"/>
						</g>
					</g>
					<g>
						<g>
							<path class="st8" d="M244.23,350.98c0.12-0.42,0.57-0.65,0.98-0.53l37.87,11.34c0.42,0.12,0.65,0.57,0.53,0.98l-0.2,0.68
								c-0.12,0.42-0.57,0.65-0.98,0.53l-37.87-11.34c-0.42-0.12-0.65-0.57-0.53-0.98L244.23,350.98z"/>
						</g>
						<g>
							<path class="st8" d="M230.93,346.99c0.12-0.42,0.57-0.65,0.98-0.53l9.81,2.94c0.42,0.12,0.65,0.57,0.53,0.98l-0.2,0.68
								c-0.12,0.42-0.57,0.65-0.98,0.53l-9.81-2.94c-0.42-0.12-0.65-0.57-0.53-0.98L230.93,346.99z"/>
						</g>
						<g>
							<path class="st8" d="M207.54,339.99c0.12-0.42,0.57-0.65,0.98-0.53l20.04,6c0.42,0.12,0.65,0.57,0.53,0.98l-0.2,0.68
								c-0.12,0.42-0.57,0.65-0.98,0.53l-20.04-6c-0.42-0.12-0.65-0.57-0.53-0.98L207.54,339.99z"/>
						</g>
					</g>
					<g>
						<g>
							<path class="st8" d="M236.37,356.01c-0.12,0.42-0.57,0.65-0.98,0.53l-29.35-8.79c-0.42-0.12-0.65-0.57-0.53-0.98l0.2-0.67
								c0.12-0.42,0.57-0.65,0.98-0.53l29.35,8.79c0.42,0.12,0.65,0.57,0.53,0.98L236.37,356.01z"/>
						</g>
						<g>
							<path class="st8" d="M250.83,360.34c-0.12,0.42-0.57,0.65-0.98,0.53l-10.97-3.28c-0.42-0.12-0.65-0.57-0.53-0.98l0.2-0.67
								c0.12-0.42,0.57-0.65,0.98-0.53l10.97,3.28c0.42,0.12,0.65,0.57,0.53,0.98L250.83,360.34z"/>
						</g>
					</g>
				</g>
			</g>
		</g>
		<g>
			<path class="st8" d="M203.35,326.6c-5.34,17.82-24.11,27.95-41.93,22.61s-27.95-24.11-22.61-41.93s24.11-27.94,41.93-22.61
				C198.56,290.01,208.68,308.78,203.35,326.6z"/>
			<g>
				<g>
					<defs>
						<path id="SVGID_00000008125526882050741560000010549486362488675255_" d="M203.35,326.6c-5.34,17.82-24.11,27.95-41.93,22.61
							s-27.95-24.11-22.61-41.93s26.24-35.05,44.06-29.72C200.69,282.9,208.68,308.78,203.35,326.6z"/>
					</defs>
					<clipPath id="SVGID_00000034771215697376259640000003120015134594238896_">
						<use xlink:href="#SVGID_00000008125526882050741560000010549486362488675255_"  style="overflow:visible;"/>
					</clipPath>
					<g style="clip-path:url(#SVGID_00000034771215697376259640000003120015134594238896_);">
						
							<linearGradient id="SVGID_00000009556817671786677390000000175580091781367443_" gradientUnits="userSpaceOnUse" x1="317.3999" y1="295.6884" x2="369.4023" y2="295.6884" gradientTransform="matrix(0.958 0.2868 0.2868 -0.958 -246.9539 517.8909)">
							<stop  offset="0" style="stop-color:#F9B5A7"/>
							<stop  offset="0.1641" style="stop-color:#F8A999"/>
							<stop  offset="1" style="stop-color:#F37156"/>
						</linearGradient>
						<path style="fill:url(#SVGID_00000009556817671786677390000000175580091781367443_);" d="M166.07,314.6
							c0,0-10.21,1.06-13.62,1.04c-3.4-0.03-6.1,3.29-7.23,5.65c-1.13,2.36-8.04,20.19-8.04,20.19s41,17.77,51.08,10.7
							c0,0,0.1-19.26-0.79-22.94s-7.33-10.04-12.26-10.22C167.28,318.74,169.76,313.61,166.07,314.6z"/>
						<g>
							<g>
								<g>
									
										<linearGradient id="SVGID_00000083800497421388559630000000408899788236429705_" gradientUnits="userSpaceOnUse" x1="336.9914" y1="316.3414" x2="352.4511" y2="316.3414" gradientTransform="matrix(0.958 0.2868 0.2868 -0.958 -246.9539 517.8909)">
										<stop  offset="0" style="stop-color:#FEDCC2"/>
										<stop  offset="1" style="stop-color:#FDCBA3"/>
									</linearGradient>
									<path style="fill:url(#SVGID_00000083800497421388559630000000408899788236429705_);" d="M170.99,304.96
										c0,0-2.63,8.33-5.8,11.27c0,0,5.6,9.25,14.62,5.07c0,0-1.7-0.36-0.23-5.45c0,0-7.28-2.02-7.67-11.53L170.99,304.96z"/>
									<path class="st12" d="M179.09,318.09c0.09-0.67,0.25-1.4,0.48-2.24c0,0-7.28-2.02-7.67-11.53l-0.14,0.1
										c-0.9,3.25-0.9,6.71,0.83,9.85C174.48,317.69,179.09,318.08,179.09,318.09C179.09,318.08,179.09,318.08,179.09,318.09z"/>
								</g>
								<g>
									<g>
										
											<linearGradient id="SVGID_00000045617505301809768220000006213666511396995982_" gradientUnits="userSpaceOnUse" x1="337.6342" y1="327.718" x2="357.285" y2="327.718" gradientTransform="matrix(0.958 0.2868 0.2868 -0.958 -246.9539 517.8909)">
											<stop  offset="0" style="stop-color:#FEDCC2"/>
											<stop  offset="1" style="stop-color:#FDCBA3"/>
										</linearGradient>
										<path style="fill:url(#SVGID_00000045617505301809768220000006213666511396995982_);" d="M190.57,306.29
											c-1.82,7.31-7.22,11.89-11.92,11.12c-4.37-0.72-7.32-5.95-6.82-12.37c0.57-7.25,5.32-14.08,11.01-14.39
											C189.08,290.32,192.66,297.86,190.57,306.29z"/>
									</g>
									
										<linearGradient id="SVGID_00000175291436950946528870000009550456131311382701_" gradientUnits="userSpaceOnUse" x1="334.4615" y1="333.2805" x2="358.8046" y2="333.2805" gradientTransform="matrix(0.958 0.2868 0.2868 -0.958 -246.9539 517.8909)">
										<stop  offset="0" style="stop-color:#8E6E54"/>
										<stop  offset="0.193" style="stop-color:#836043"/>
										<stop  offset="1" style="stop-color:#572700"/>
									</linearGradient>
									<path style="fill:url(#SVGID_00000175291436950946528870000009550456131311382701_);" d="M172.96,287.2
										c-1.2,1.38-3.32,4.31-4.2,8.52c-0.59,2.8-1.68,5.67,1.46,11.52c0,0,0.98,0.37,4.63-5.16c0,0,0.78-1.06,1.44-3.28
										s-1.01-3.71-1.01-3.71s4.63-0.67,7.39,1.04c6.02,3.72,8.3,2.8,8.3,2.8s3.27-2.02,3.53-4.82c0.26-2.8-0.22-4.38-0.22-4.38
										s-1.05,0.93-3.58,0.08c0,0,1.08-0.06,1.5-0.51c0,0-1.82,0.61-6.79-1.65C180.43,285.39,175.07,284.96,172.96,287.2z"/>
									<g>
										
											<linearGradient id="SVGID_00000014593132380697653650000015882747666833776773_" gradientUnits="userSpaceOnUse" x1="337.6333" y1="326.6701" x2="357.287" y2="326.6701" gradientTransform="matrix(0.958 0.2868 0.2868 -0.958 -246.9539 517.8909)">
											<stop  offset="0" style="stop-color:#FEDCC2"/>
											<stop  offset="1" style="stop-color:#FDCBA3"/>
										</linearGradient>
										<path style="fill:url(#SVGID_00000014593132380697653650000015882747666833776773_);" d="M174.85,302.08
											c0.26,2.27-0.75,4.13-2.13,4.38c-1.27,0.23-2.63-0.97-3.15-2.85c-0.59-2.13,0.01-4.56,1.54-5.22
											C172.79,297.67,174.56,299.46,174.85,302.08z"/>
										<path class="st16" d="M171.24,299.93c0,0,0.49-0.51,1.33,0.89c0.84,1.4,0.59,3.14-0.47,3.04
											c-1.07-0.1-0.39-1.44-0.05-1.83C172.04,302.03,172.78,300.99,171.24,299.93z"/>
									</g>
								</g>
							</g>
						</g>
					</g>
				</g>
			</g>
		</g>
	</g>
	<g>
		
			<linearGradient id="SVGID_00000111193392544783282650000014864532137559025813_" gradientUnits="userSpaceOnUse" x1="296.3281" y1="206.0608" x2="476.614" y2="206.0608" gradientTransform="matrix(0.958 0.2868 0.2868 -0.958 -246.9539 517.8909)">
			<stop  offset="0" style="stop-color:#C1D8FF"/>
			<stop  offset="1" style="stop-color:#9CC1FF"/>
		</linearGradient>
		<path style="fill:url(#SVGID_00000111193392544783282650000014864532137559025813_);" d="M274.5,411.09
			c4.06,1.21,6.38,5.53,5.17,9.58l-21.86,73.01c-1.21,4.05-5.53,6.38-9.58,5.17l-157.96-47.3c-4.06-1.21-6.38-5.53-5.17-9.58
			l21.86-73c1.21-4.06,5.53-6.38,9.58-5.17L274.5,411.09z"/>
		<g>
			<g>
				
					<linearGradient id="SVGID_00000146476255376951911920000001629603455813087880_" gradientUnits="userSpaceOnUse" x1="390.7909" y1="225.0126" x2="402.1046" y2="225.0126" gradientTransform="matrix(0.958 0.2868 0.2868 -0.958 -246.9539 517.8909)">
					<stop  offset="0" style="stop-color:#FFFFFF"/>
					<stop  offset="0.1996" style="stop-color:#FDF9B0"/>
					<stop  offset="0.3804" style="stop-color:#FBF46C"/>
					<stop  offset="0.5514" style="stop-color:#F6E159"/>
					<stop  offset="1" style="stop-color:#E9B12A"/>
				</linearGradient>
				<polygon style="fill:url(#SVGID_00000146476255376951911920000001629603455813087880_);" points="198.9,410.87 199,415.19 
					203.14,416.43 199.06,417.86 199.16,422.18 196.54,418.74 192.47,420.17 194.92,416.62 192.3,413.19 196.44,414.43 				"/>
				<polygon class="st7" points="212.14,414.84 212.24,419.16 216.38,420.4 212.31,421.83 212.41,426.14 209.78,422.71 
					205.71,424.14 208.17,420.59 205.55,417.15 209.68,418.39 				"/>
				<polygon class="st7" points="225.39,418.8 225.49,423.12 229.63,424.36 225.55,425.79 225.65,430.11 223.03,426.67 
					218.96,428.1 221.41,424.55 218.79,421.12 222.93,422.36 				"/>
				<polygon class="st7" points="238.63,422.77 238.73,427.09 242.87,428.33 238.8,429.76 238.9,434.07 236.27,430.64 232.2,432.07 
					234.66,428.52 232.04,425.08 236.17,426.32 				"/>
				<polygon class="st7" points="251.88,426.74 251.97,431.05 256.12,432.29 252.04,433.72 252.14,438.04 249.52,434.61 
					245.44,436.04 247.9,432.48 245.28,429.05 249.42,430.29 				"/>
			</g>
			<g>
				<g>
					<g>
						<path class="st8" d="M219.63,442.89c-0.12,0.42-0.57,0.65-0.98,0.53l-37.87-11.34c-0.42-0.12-0.65-0.57-0.53-0.98l0.2-0.68
							c0.12-0.42,0.57-0.65,0.98-0.53l37.87,11.34c0.42,0.12,0.65,0.57,0.53,0.98L219.63,442.89z"/>
					</g>
					<g>
						<path class="st8" d="M232.94,446.88c-0.12,0.42-0.57,0.65-0.98,0.53l-9.81-2.94c-0.42-0.12-0.65-0.57-0.53-0.98l0.2-0.68
							c0.12-0.42,0.57-0.65,0.98-0.53l9.81,2.94c0.42,0.12,0.65,0.57,0.53,0.98L232.94,446.88z"/>
					</g>
					<g>
						<path class="st8" d="M256.33,453.88c-0.12,0.42-0.57,0.65-0.98,0.53l-20.04-6c-0.42-0.12-0.65-0.57-0.53-0.98l0.2-0.68
							c0.12-0.42,0.57-0.65,0.98-0.53l20.04,6c0.42,0.12,0.65,0.57,0.53,0.98L256.33,453.88z"/>
					</g>
				</g>
				<g>
					<g>
						<path class="st8" d="M209.29,446.45c-0.12,0.42-0.57,0.65-0.98,0.53l-29.35-8.79c-0.42-0.12-0.65-0.57-0.53-0.98l0.2-0.68
							c0.12-0.42,0.57-0.65,0.98-0.53l29.35,8.79c0.42,0.12,0.65,0.57,0.53,0.98L209.29,446.45z"/>
					</g>
					<g>
						<path class="st8" d="M223.75,450.78c-0.12,0.42-0.57,0.65-0.98,0.53l-10.97-3.28c-0.42-0.12-0.65-0.57-0.53-0.98l0.2-0.68
							c0.12-0.42,0.57-0.65,0.98-0.53l10.97,3.28c0.42,0.12,0.65,0.57,0.53,0.98L223.75,450.78z"/>
					</g>
					<g>
						<path class="st8" d="M254.5,459.99c-0.12,0.42-0.57,0.65-0.98,0.53l-27.4-8.2c-0.42-0.12-0.65-0.57-0.53-0.98l0.2-0.68
							c0.12-0.42,0.57-0.65,0.98-0.53l27.4,8.2c0.42,0.12,0.65,0.57,0.53,0.98L254.5,459.99z"/>
					</g>
				</g>
				<g>
					<g>
						<path class="st8" d="M213.5,453.63c0.12-0.42,0.57-0.65,0.98-0.53l37.87,11.34c0.42,0.12,0.65,0.57,0.53,0.98l-0.2,0.67
							c-0.12,0.42-0.57,0.65-0.98,0.53l-37.87-11.34c-0.42-0.12-0.65-0.57-0.53-0.98L213.5,453.63z"/>
					</g>
					<g>
						<path class="st8" d="M200.19,449.64c0.12-0.42,0.57-0.65,0.98-0.53l9.81,2.94c0.42,0.12,0.65,0.57,0.53,0.98l-0.2,0.67
							c-0.12,0.42-0.57,0.65-0.98,0.53l-9.81-2.94c-0.42-0.12-0.65-0.57-0.53-0.98L200.19,449.64z"/>
					</g>
					<g>
						<path class="st8" d="M176.8,442.64c0.12-0.42,0.57-0.65,0.98-0.53l20.04,6c0.42,0.12,0.65,0.57,0.53,0.98l-0.2,0.67
							c-0.12,0.42-0.57,0.65-0.98,0.53l-20.04-6c-0.42-0.12-0.65-0.57-0.53-0.98L176.8,442.64z"/>
					</g>
				</g>
				<g>
					<g>
						<path class="st8" d="M205.64,458.65c-0.12,0.42-0.57,0.65-0.98,0.53l-29.35-8.79c-0.42-0.12-0.65-0.57-0.53-0.98l0.2-0.68
							c0.12-0.42,0.57-0.65,0.98-0.53l29.35,8.79c0.42,0.12,0.65,0.57,0.53,0.98L205.64,458.65z"/>
					</g>
					<g>
						<path class="st8" d="M220.1,462.99c-0.12,0.42-0.57,0.65-0.98,0.53l-10.97-3.28c-0.42-0.12-0.65-0.57-0.53-0.98l0.2-0.68
							c0.12-0.42,0.57-0.65,0.98-0.53l10.97,3.28c0.42,0.12,0.65,0.57,0.53,0.98L220.1,462.99z"/>
					</g>
				</g>
			</g>
		</g>
		<g>
			<g>
				<path class="st8" d="M172.61,429.25c-5.34,17.82-24.11,27.95-41.93,22.61c-17.82-5.34-27.95-24.11-22.61-41.93
					s24.11-27.94,41.93-22.61C167.83,392.65,177.95,411.43,172.61,429.25z"/>
			</g>
			<g>
				<g>
					<defs>
						<path id="SVGID_00000007391502686081945630000011866389480089534600_" d="M172.61,429.25c-5.34,17.82-24.11,27.95-41.93,22.61
							c-17.82-5.34-27.95-24.11-22.61-41.93s26.24-35.05,44.06-29.72C169.96,385.54,177.95,411.43,172.61,429.25z"/>
					</defs>
					<clipPath id="SVGID_00000126322795589499079640000017580338329781928895_">
						<use xlink:href="#SVGID_00000007391502686081945630000011866389480089534600_"  style="overflow:visible;"/>
					</clipPath>
					<g style="clip-path:url(#SVGID_00000126322795589499079640000017580338329781928895_);">
						
							<linearGradient id="SVGID_00000104679246711477467870000012578033349299224230_" gradientUnits="userSpaceOnUse" x1="316.2514" y1="189.0188" x2="369.3905" y2="189.0188" gradientTransform="matrix(0.958 0.2868 0.2868 -0.958 -246.9539 517.8909)">
							<stop  offset="0" style="stop-color:#FFDFA0"/>
							<stop  offset="0.2975" style="stop-color:#FFD582"/>
							<stop  offset="1" style="stop-color:#FEBF3F"/>
						</linearGradient>
						<path style="fill:url(#SVGID_00000104679246711477467870000012578033349299224230_);" d="M132.66,415.76
							c0,0-8.52,1.86-11.92,1.83c-3.4-0.02-6.1,3.29-7.24,5.65c-1.13,2.36-8.04,20.19-8.04,20.19s41.98,18.47,52.06,11.39
							c0,0-0.89-19.95-1.78-23.63s-5.76-7.57-6.9-8.1c-1.61-0.75-5.42-0.36-6.93-1.72C140.41,420.01,136.34,414.78,132.66,415.76z"
							/>
						<g>
							<g>
								<g>
									<g>
										<g>
											
												<linearGradient id="SVGID_00000092415683713511877770000000353777739810005396_" gradientUnits="userSpaceOnUse" x1="337.0157" y1="209.8457" x2="351.7307" y2="209.8457" gradientTransform="matrix(0.958 0.2868 0.2868 -0.958 -246.9539 517.8909)">
												<stop  offset="0" style="stop-color:#FEDCC2"/>
												<stop  offset="1" style="stop-color:#FDCBA3"/>
											</linearGradient>
											<path style="fill:url(#SVGID_00000092415683713511877770000000353777739810005396_);" d="M139.28,406.91
												c0,0-1.54,5.3-3.46,7.43c0,0,3.13,11.27,12.22,10.49c0,0-1.65-1.93-0.18-7.02c0,0-7.28-2.03-7.67-11.53L139.28,406.91z"
												/>
											<path class="st12" d="M147.37,420.04c0.1-0.67,0.25-1.41,0.49-2.24c0,0-7.28-2.03-7.67-11.53l-0.14,0.1
												c-0.91,3.25-0.9,6.71,0.83,9.85C142.76,419.64,147.37,420.04,147.37,420.04L147.37,420.04z"/>
										</g>
										<g>
											<g>
												
													<linearGradient id="SVGID_00000156553775870379563850000009985431693858154674_" gradientUnits="userSpaceOnUse" x1="338.5676" y1="220.953" x2="357.331" y2="220.953" gradientTransform="matrix(0.958 0.2868 0.2868 -0.958 -246.9539 517.8909)">
													<stop  offset="0" style="stop-color:#FEDCC2"/>
													<stop  offset="1" style="stop-color:#FDCBA3"/>
												</linearGradient>
												<path style="fill:url(#SVGID_00000156553775870379563850000009985431693858154674_);" d="M158.85,408.25
													c-1.82,7.31-7.22,11.89-11.92,11.11c-4.37-0.72-7.32-5.95-6.81-12.37c0.57-7.25,5.32-14.08,11-14.39
													C157.36,392.28,160.95,399.82,158.85,408.25z"/>
											</g>
										</g>
									</g>
									<g>
										<path class="st8" d="M135.82,414.34c0,0,1.89,6.97,7.21,9.5l-4.24,4.49c0,0-6.03-7.72-6.13-12.57L135.82,414.34z"/>
										<path class="st8" d="M143.03,423.84l2.1,5.32c0,0,2.26-2.1,3.72-6.06l-1.59-1.82
											C147.26,421.28,145.85,423.97,143.03,423.84z"/>
									</g>
								</g>
							</g>
							
								<linearGradient id="SVGID_00000086682318363514649130000015649735909204183174_" gradientUnits="userSpaceOnUse" x1="321.5059" y1="216.678" x2="358.1022" y2="216.678" gradientTransform="matrix(0.958 0.2868 0.2868 -0.958 -246.9539 517.8909)">
								<stop  offset="0" style="stop-color:#AC6E66"/>
								<stop  offset="1" style="stop-color:#893024"/>
							</linearGradient>
							<path style="fill:url(#SVGID_00000086682318363514649130000015649735909204183174_);" d="M156.94,398.74
								c0,0-4.51,6.79-14.63,6.43c0,0-3.57,12.55-10.81,13.69c-5.84,0.92-12.23,1.7-12.94,5.4c0,0-2.18-6.48,3.21-11.22
								c6.53-5.74,11.11,0.67,13.62-10.32c2.51-11,12.51-21.86,23.26-10.02c0,0,7.71,2.11,0.32,15.01
								C158.97,407.71,159.7,399.96,156.94,398.74z"/>
						</g>
					</g>
				</g>
			</g>
		</g>
	</g>
	<g>
		
			<linearGradient id="SVGID_00000054963861193123661370000008826847253587777408_" gradientUnits="userSpaceOnUse" x1="296.3335" y1="420.3734" x2="476.6223" y2="420.3734" gradientTransform="matrix(0.958 0.2868 0.2868 -0.958 -246.9539 517.8909)">
			<stop  offset="0" style="stop-color:#CEBEF6"/>
			<stop  offset="1" style="stop-color:#AB90EF"/>
		</linearGradient>
		<path style="fill:url(#SVGID_00000054963861193123661370000008826847253587777408_);" d="M335.97,205.79
			c4.06,1.21,6.38,5.53,5.17,9.58l-21.86,73c-1.21,4.06-5.53,6.38-9.58,5.17l-157.96-47.3c-4.06-1.21-6.38-5.53-5.17-9.58l21.86-73
			c1.21-4.06,5.53-6.38,9.58-5.17L335.97,205.79z"/>
		<g>
			<g>
				<g>
					
						<linearGradient id="SVGID_00000057107922282512449870000008877772682960008842_" gradientUnits="userSpaceOnUse" x1="390.7909" y1="439.3081" x2="402.1046" y2="439.3081" gradientTransform="matrix(0.958 0.2868 0.2868 -0.958 -246.9539 517.8909)">
						<stop  offset="0" style="stop-color:#FFFFFF"/>
						<stop  offset="0.1996" style="stop-color:#FDF9B0"/>
						<stop  offset="0.3804" style="stop-color:#FBF46C"/>
						<stop  offset="0.5514" style="stop-color:#F6E159"/>
						<stop  offset="1" style="stop-color:#E9B12A"/>
					</linearGradient>
					<polygon style="fill:url(#SVGID_00000057107922282512449870000008877772682960008842_);" points="260.37,205.58 260.47,209.9 
						264.61,211.13 260.53,212.56 260.63,216.88 258.01,213.45 253.93,214.88 256.39,211.32 253.77,207.89 257.91,209.13 					"/>
					<polygon class="st7" points="273.61,209.54 273.71,213.86 277.85,215.1 273.77,216.53 273.87,220.85 271.25,217.41 
						267.18,218.84 269.64,215.29 267.02,211.86 271.15,213.09 					"/>
					<polygon class="st7" points="286.85,213.51 286.96,217.83 291.09,219.07 287.02,220.5 287.12,224.81 284.5,221.38 
						280.42,222.81 282.88,219.26 280.26,215.82 284.4,217.06 					"/>
					<polygon class="st7" points="300.1,217.47 300.2,221.79 304.34,223.03 300.26,224.46 300.36,228.78 297.74,225.34 
						293.67,226.77 296.13,223.22 293.5,219.79 297.64,221.03 					"/>
					<polygon class="st7" points="313.34,221.44 313.44,225.76 317.58,227 313.51,228.43 313.61,232.75 310.99,229.31 
						306.91,230.74 309.37,227.19 306.75,223.75 310.89,224.99 					"/>
				</g>
				<g>
					<g>
						<g>
							<path class="st8" d="M281.1,237.6c-0.12,0.42-0.57,0.65-0.98,0.53l-37.87-11.34c-0.42-0.12-0.65-0.57-0.53-0.98l0.2-0.68
								c0.12-0.42,0.57-0.65,0.98-0.53l37.87,11.34c0.42,0.12,0.65,0.57,0.53,0.98L281.1,237.6z"/>
						</g>
						<g>
							<path class="st8" d="M294.41,241.59c-0.12,0.42-0.57,0.65-0.98,0.53l-9.81-2.94c-0.42-0.12-0.65-0.57-0.53-0.98l0.2-0.68
								c0.12-0.42,0.57-0.65,0.98-0.53l9.81,2.94c0.42,0.12,0.65,0.57,0.53,0.98L294.41,241.59z"/>
						</g>
						<g>
							<path class="st8" d="M317.8,248.59c-0.12,0.42-0.57,0.65-0.98,0.53l-20.04-6c-0.42-0.12-0.65-0.57-0.53-0.98l0.2-0.68
								c0.12-0.42,0.57-0.65,0.98-0.53l20.04,6c0.42,0.12,0.65,0.57,0.53,0.98L317.8,248.59z"/>
						</g>
					</g>
					<g>
						<g>
							<path class="st8" d="M270.76,241.15c-0.12,0.42-0.57,0.65-0.98,0.53l-29.35-8.79c-0.42-0.12-0.65-0.57-0.53-0.98l0.2-0.68
								c0.12-0.42,0.57-0.65,0.98-0.53l29.35,8.79c0.42,0.12,0.65,0.57,0.53,0.98L270.76,241.15z"/>
						</g>
						<g>
							<path class="st8" d="M285.22,245.49c-0.12,0.42-0.57,0.65-0.98,0.53l-10.97-3.28c-0.42-0.12-0.65-0.57-0.53-0.98l0.2-0.68
								c0.12-0.42,0.57-0.65,0.98-0.53l10.97,3.28c0.42,0.12,0.65,0.57,0.53,0.98L285.22,245.49z"/>
						</g>
						<g>
							<path class="st8" d="M315.97,254.69c-0.12,0.42-0.57,0.65-0.98,0.53l-27.4-8.2c-0.42-0.12-0.65-0.57-0.53-0.98l0.2-0.68
								c0.12-0.42,0.57-0.65,0.98-0.53l27.4,8.2c0.42,0.12,0.65,0.57,0.53,0.98L315.97,254.69z"/>
						</g>
					</g>
					<g>
						<g>
							<path class="st8" d="M274.97,248.33c0.12-0.42,0.57-0.65,0.98-0.53l37.87,11.34c0.42,0.12,0.65,0.57,0.53,0.98l-0.2,0.68
								c-0.12,0.42-0.57,0.65-0.98,0.53l-37.87-11.34c-0.42-0.12-0.65-0.57-0.53-0.98L274.97,248.33z"/>
						</g>
						<g>
							<path class="st8" d="M261.66,244.34c0.12-0.42,0.57-0.65,0.98-0.53l9.81,2.94c0.42,0.12,0.65,0.57,0.53,0.98l-0.2,0.68
								c-0.12,0.42-0.57,0.65-0.98,0.53l-9.81-2.94c-0.42-0.12-0.65-0.57-0.53-0.98L261.66,244.34z"/>
						</g>
						<g>
							<path class="st8" d="M238.27,237.34c0.12-0.42,0.57-0.65,0.98-0.53l20.04,6c0.42,0.12,0.65,0.57,0.53,0.98l-0.2,0.68
								c-0.12,0.42-0.57,0.65-0.98,0.53l-20.04-6c-0.42-0.12-0.65-0.57-0.53-0.98L238.27,237.34z"/>
						</g>
					</g>
					<g>
						<g>
							<path class="st8" d="M267.1,253.36c-0.12,0.42-0.57,0.65-0.98,0.53l-29.35-8.79c-0.42-0.12-0.65-0.57-0.53-0.98l0.2-0.68
								c0.12-0.42,0.57-0.65,0.98-0.53l29.35,8.79c0.42,0.12,0.65,0.57,0.53,0.98L267.1,253.36z"/>
						</g>
						<g>
							<path class="st8" d="M281.57,257.69c-0.12,0.42-0.57,0.65-0.98,0.53l-10.97-3.28c-0.42-0.12-0.65-0.57-0.53-0.98l0.2-0.68
								c0.12-0.42,0.57-0.65,0.98-0.53l10.97,3.28c0.42,0.12,0.65,0.57,0.53,0.98L281.57,257.69z"/>
						</g>
					</g>
				</g>
			</g>
			<g>
				<path class="st8" d="M234.08,223.95c-5.34,17.82-24.11,27.94-41.93,22.61c-17.82-5.34-27.95-24.11-22.61-41.93
					s24.11-27.94,41.93-22.61C229.3,187.36,239.42,206.13,234.08,223.95z"/>
				<g>
					<g>
						<defs>
							<path id="SVGID_00000099632052443997676290000001764078526168848040_" d="M234.08,223.95
								c-5.34,17.82-24.11,27.94-41.93,22.61c-17.82-5.34-27.95-24.11-22.61-41.93s26.24-35.05,44.06-29.72
								C231.42,180.25,239.42,206.13,234.08,223.95z"/>
						</defs>
						<clipPath id="SVGID_00000049200495486081427600000002099240725154716565_">
							<use xlink:href="#SVGID_00000099632052443997676290000001764078526168848040_"  style="overflow:visible;"/>
						</clipPath>
						<g style="clip-path:url(#SVGID_00000049200495486081427600000002099240725154716565_);">
							<g>
								
									<linearGradient id="SVGID_00000164484911503406770570000014527881386887215032_" gradientUnits="userSpaceOnUse" x1="316.272" y1="403.3156" x2="369.4112" y2="403.3156" gradientTransform="matrix(0.958 0.2868 0.2868 -0.958 -246.9539 517.8909)">
									<stop  offset="0" style="stop-color:#A5ACC5"/>
									<stop  offset="0.1541" style="stop-color:#98A0BD"/>
									<stop  offset="1" style="stop-color:#556292"/>
								</linearGradient>
								<path style="fill:url(#SVGID_00000164484911503406770570000014527881386887215032_);" d="M194.13,210.47
									c0,0-8.52,1.86-11.92,1.83c-3.4-0.02-6.1,3.29-7.23,5.65c-1.13,2.36-8.04,20.19-8.04,20.19s41.98,18.47,52.06,11.39
									c0,0-0.89-19.95-1.78-23.63c-0.89-3.68-5.76-7.57-6.9-8.1c-1.61-0.75-5.42-0.35-6.93-1.72
									C201.88,214.72,197.81,209.48,194.13,210.47z"/>
								<g>
									<g>
										<g>
											
												<linearGradient id="SVGID_00000127007295404536172800000015222900171617737121_" gradientUnits="userSpaceOnUse" x1="337.0157" y1="424.1426" x2="351.7307" y2="424.1426" gradientTransform="matrix(0.958 0.2868 0.2868 -0.958 -246.9539 517.8909)">
												<stop  offset="0" style="stop-color:#FEDCC2"/>
												<stop  offset="1" style="stop-color:#FDCBA3"/>
											</linearGradient>
											<path style="fill:url(#SVGID_00000127007295404536172800000015222900171617737121_);" d="M200.74,201.62
												c0,0-1.54,5.3-3.46,7.43c0,0,3.13,11.26,12.22,10.49c0,0-1.65-1.93-0.18-7.03c0,0-7.28-2.02-7.67-11.53L200.74,201.62z"
												/>
											<path class="st12" d="M208.84,214.75c0.1-0.67,0.25-1.41,0.49-2.24c0,0-7.28-2.02-7.67-11.53l-0.14,0.1
												c-0.91,3.25-0.9,6.71,0.83,9.85C204.23,214.35,208.83,214.75,208.84,214.75L208.84,214.75z"/>
										</g>
										<g>
											<g>
												
													<linearGradient id="SVGID_00000049198213900514601500000011050100653134503576_" gradientUnits="userSpaceOnUse" x1="336.5619" y1="435.2528" x2="355.8981" y2="435.2528" gradientTransform="matrix(0.958 0.2868 0.2868 -0.958 -246.9539 517.8909)">
													<stop  offset="0" style="stop-color:#FEDCC2"/>
													<stop  offset="1" style="stop-color:#FDCBA3"/>
												</linearGradient>
												<path style="fill:url(#SVGID_00000049198213900514601500000011050100653134503576_);" d="M220.32,202.95
													c-1.82,7.31-7.22,11.89-11.92,11.11c-4.37-0.72-7.32-5.95-6.81-12.37c0.57-7.25,5.32-14.08,11-14.38
													C218.83,186.98,222.41,194.52,220.32,202.95z"/>
											</g>
											
												<linearGradient id="SVGID_00000148655798798465994130000011548719157032410496_" gradientUnits="userSpaceOnUse" x1="332.8859" y1="440.7983" x2="359.5111" y2="440.7983" gradientTransform="matrix(0.958 0.2868 0.2868 -0.958 -246.9539 517.8909)">
												<stop  offset="0" style="stop-color:#606981"/>
												<stop  offset="1" style="stop-color:#333E5D"/>
											</linearGradient>
											<path style="fill:url(#SVGID_00000148655798798465994130000011548719157032410496_);" d="M204.6,198.74
												c0,0,0.78-1.06,1.44-3.28s1.05-3.52,1.05-3.52s2.17-1.06,4.62,0.24s4.11,1.94,4.11,1.94s-0.77-1.23-1-1.86
												c-0.24-0.64,4.11,2.58,5.81,2.84c1.69,0.25,4.16-0.99,5.45-3.87c1.29-2.88-1.29-4.78-4.39-4.85
												c-3.1-0.08-9.03-2.76-11.57-4.05c-4.07-2.07-9.06,1.88-10.79,5.8c-1.15,2.62-2.51,9.93,0.64,15.78
												C199.97,203.91,200.95,204.27,204.6,198.74z"/>
											<g>
												
													<linearGradient id="SVGID_00000024717421980671546270000000085285875057534655_" gradientUnits="userSpaceOnUse" x1="336.5618" y1="434.2003" x2="355.8997" y2="434.2003" gradientTransform="matrix(0.958 0.2868 0.2868 -0.958 -246.9539 517.8909)">
													<stop  offset="0" style="stop-color:#FEDCC2"/>
													<stop  offset="1" style="stop-color:#FDCBA3"/>
												</linearGradient>
												<path style="fill:url(#SVGID_00000024717421980671546270000000085285875057534655_);" d="M204.6,198.74
													c0.26,2.28-0.76,4.13-2.13,4.38c-1.27,0.23-2.62-0.97-3.15-2.85c-0.6-2.13,0-4.56,1.54-5.22
													C202.54,194.33,204.31,196.12,204.6,198.74z"/>
												<path class="st16" d="M200.99,196.59c0,0,0.48-0.51,1.32,0.89c0.84,1.4,0.59,3.14-0.47,3.04
													c-1.07-0.1-0.39-1.44-0.06-1.83C201.78,198.69,202.53,197.65,200.99,196.59z"/>
											</g>
										</g>
									</g>
								</g>
							</g>
							<g>
								<g>
									<path class="st8" d="M197.29,209.05c0,0,1.89,6.97,7.21,9.5l-4.24,4.48c0,0-6.03-7.72-6.13-12.56L197.29,209.05z"/>
									<path class="st8" d="M204.5,218.55l2.1,5.32c0,0,2.26-2.1,3.72-6.06l-1.59-1.82C208.72,215.98,207.32,218.67,204.5,218.55z
										"/>
								</g>
							</g>
						</g>
					</g>
				</g>
			</g>
		</g>
	</g>
</g>
<g>
	<g>
		
			<linearGradient id="SVGID_00000124150711689315302820000016986507841751509428_" gradientUnits="userSpaceOnUse" x1="512.0437" y1="241.278" x2="512.0437" y2="308.669" gradientTransform="matrix(0.958 0.2868 0.2868 -0.958 -246.9539 517.8909)">
			<stop  offset="0" style="stop-color:#ECD6AF"/>
			<stop  offset="0.4862" style="stop-color:#DCBF8E"/>
			<stop  offset="1" style="stop-color:#CAA466"/>
		</linearGradient>
		<path style="fill:url(#SVGID_00000124150711689315302820000016986507841751509428_);" d="M318.4,369.84
			c0,0-13.88,11.48-17.1,22.23c-3.22,10.76,0.55,27.52,6.61,31.77c6.05,4.25,23.53-0.28,27.51-10.32s10.25-17.93,14.06-24.12
			s4.76-19.58-27.05-33.01L318.4,369.84z"/>
		<path class="st33" d="M332.24,402.95c-1.05-2.29-5.85-12.06-10.05-12.31c-4.2-0.25-5.28,2.03-1.87,7.86
			c3.41,5.82,5.74,13.93,10.47,13.27C335.51,411.12,333.61,405.94,332.24,402.95z"/>
	</g>
	<g>
		<g>
			
				<linearGradient id="SVGID_00000146499154986530197410000005335350091070185877_" gradientUnits="userSpaceOnUse" x1="250.0567" y1="190.5697" x2="274.227" y2="190.5697" gradientTransform="matrix(0.958 0.2868 0.2868 -0.958 -246.9539 517.8909)">
				<stop  offset="0" style="stop-color:#CAA466"/>
				<stop  offset="0.8843" style="stop-color:#B48B45"/>
				<stop  offset="1" style="stop-color:#B18840"/>
			</linearGradient>
			<path style="fill:url(#SVGID_00000146499154986530197410000005335350091070185877_);" d="M49.18,401.04
				c0,0,15.52-0.91,18.16-8.55c2.64-7.64,9.76-0.86,9.76-0.86l-13.73,45.86C63.37,437.49,42.68,415.36,49.18,401.04z"/>
			<g>
				
					<linearGradient id="SVGID_00000011012742962348707080000005944996924230995647_" gradientUnits="userSpaceOnUse" x1="240.4115" y1="165.7672" x2="286.7402" y2="165.7672" gradientTransform="matrix(0.958 0.2868 0.2868 -0.958 -246.9539 517.8909)">
					<stop  offset="0" style="stop-color:#ECD6AF"/>
					<stop  offset="0.4862" style="stop-color:#DCBF8E"/>
					<stop  offset="1" style="stop-color:#CAA466"/>
				</linearGradient>
				<path style="fill:url(#SVGID_00000011012742962348707080000005944996924230995647_);" d="M40.1,404.72c0,0-8.06,7.36-4.83,21.03
					c2.8,11.84,9.06,37.83,17.28,42.04c7.82,4,22.34-4.77,17.96-22.69c-4.38-17.92-9.75-37.6-13.42-41.63
					C53.41,399.43,44.52,400.66,40.1,404.72z"/>
				<path class="st33" d="M61.1,445.79c0,0-12.87,4.17-13.22,7.64c-0.34,3.48,1.85,9.47,5.09,9.44s12.66-3.69,13.27-8
					C66.85,450.56,63.81,444.42,61.1,445.79z"/>
			</g>
		</g>
		<g>
			
				<linearGradient id="SVGID_00000051375263289826408190000015274253342792917387_" gradientUnits="userSpaceOnUse" x1="210.9938" y1="217.7602" x2="275.8607" y2="267.5956" gradientTransform="matrix(0.958 0.2868 0.2868 -0.958 -246.9539 517.8909)">
				<stop  offset="0" style="stop-color:#ECD6AF"/>
				<stop  offset="0.4862" style="stop-color:#DCBF8E"/>
				<stop  offset="1" style="stop-color:#CAA466"/>
			</linearGradient>
			<path style="fill:url(#SVGID_00000051375263289826408190000015274253342792917387_);" d="M45.29,299.31
				c0,0-28.68,6.07-17.6,34.29c9.41,23.97,32.35,74.65,56.64,70.2s24.59-23.41,17.95-42C95.65,343.2,60.62,297.06,45.29,299.31z"/>
			<path class="st33" d="M85.39,359.7c0,0-23.58,13.89-23.05,20.71c0.53,6.82,6.71,17.56,12.83,16.28
				c6.12-1.28,22.69-11.87,22.38-20.4C97.23,367.76,90.05,356.06,85.39,359.7z"/>
		</g>
		<g>
			
				<linearGradient id="SVGID_00000000204503148553398380000005095430265636987816_" gradientUnits="userSpaceOnUse" x1="227.9622" y1="339.9479" x2="273.9182" y2="339.9479" gradientTransform="matrix(0.958 0.2868 0.2868 -0.958 -246.9539 517.8909)">
				<stop  offset="0" style="stop-color:#CAA466"/>
				<stop  offset="0.8843" style="stop-color:#B48B45"/>
				<stop  offset="1" style="stop-color:#B18840"/>
			</linearGradient>
			<path style="fill:url(#SVGID_00000000204503148553398380000005095430265636987816_);" d="M72.29,246.38c0,0,26.47,4.47,45.9,6.92
				l-10.47,34.96C107.72,288.26,69.56,261.72,72.29,246.38z"/>
			<g>
				
					<linearGradient id="SVGID_00000117652407289982026270000016943053666536770700_" gradientUnits="userSpaceOnUse" x1="264.8237" y1="249.1884" x2="264.8237" y2="347.2111" gradientTransform="matrix(0.958 0.2868 0.2868 -0.958 -246.9539 517.8909)">
					<stop  offset="0" style="stop-color:#ECD6AF"/>
					<stop  offset="0.4862" style="stop-color:#DCBF8E"/>
					<stop  offset="1" style="stop-color:#CAA466"/>
				</linearGradient>
				<path style="fill:url(#SVGID_00000117652407289982026270000016943053666536770700_);" d="M91.61,255.54
					c0,0,40.58,43.9,46.69,54.52c6.1,10.62,5.52,20.7-1.95,32.63c-7.48,11.93-19.43,23.51-29.89,14.99
					C96,349.15,51.79,303.7,46.67,286.53c-5.12-17.16,11.1-33.8,19.83-38.51C75.24,243.31,85.91,249.33,91.61,255.54z"/>
				<path class="st33" d="M121.28,308.77c0,0-23.12,15.65-22.73,23.09c0.4,7.45,8.1,18.53,14.42,17s21.97-12.94,21.83-22.26
					C134.67,317.28,126.14,304.68,121.28,308.77z"/>
			</g>
		</g>
		<g>
			
				<linearGradient id="SVGID_00000151537534940020261960000002004096575177800345_" gradientUnits="userSpaceOnUse" x1="281.4104" y1="336.9974" x2="281.4104" y2="391.5878" gradientTransform="matrix(0.958 0.2868 0.2868 -0.958 -246.9539 517.8909)">
				<stop  offset="0" style="stop-color:#ECD6AF"/>
				<stop  offset="0.4862" style="stop-color:#DCBF8E"/>
				<stop  offset="1" style="stop-color:#CAA466"/>
			</linearGradient>
			<path style="fill:url(#SVGID_00000151537534940020261960000002004096575177800345_);" d="M130.82,211.11l6.71-22.41
				c0,0-13.2-0.04-24.22,7.4c0,0-24.14,23.54-16.11,44.02s22.7,44.9,31.72,49.06c9.01,4.16,15.42,0.71,23.97-9.92
				s11.37-20.04,6.17-30.39c-5.2-10.35-27.7-39.55-27.7-39.55"/>
			<path class="st33" d="M138.57,247.05c0,0-18.7,15.98-17.19,21.81c1.51,5.83,8.53,14.19,13.65,12.14
				c5.12-2.04,17.88-13.76,16.29-21.11C149.74,252.54,142.06,243.17,138.57,247.05z"/>
		</g>
	</g>
</g>
<g>
	<g>
		
			<linearGradient id="SVGID_00000103980706883640209840000017887051902893516471_" gradientUnits="userSpaceOnUse" x1="513.1356" y1="436.9493" x2="651.427" y2="334.6512" gradientTransform="matrix(0.958 0.2868 0.2868 -0.958 -246.9539 517.8909)">
			<stop  offset="0" style="stop-color:#FFDD95"/>
			<stop  offset="1" style="stop-color:#FFCA59"/>
		</linearGradient>
		<path style="fill:url(#SVGID_00000103980706883640209840000017887051902893516471_);" d="M498.61,334.18
			c-13.42,44.81-60.62,70.27-105.44,56.85c-44.81-13.42-70.26-60.62-56.85-105.44c13.42-44.81,60.62-70.27,105.44-56.85
			C486.58,242.16,512.03,289.37,498.61,334.18z"/>
	</g>
	<g>
		<g>
			<g>
				
					<linearGradient id="SVGID_00000123439052485312791410000000017634951945831830_" gradientUnits="userSpaceOnUse" x1="521.0952" y1="379.1633" x2="602.2066" y2="379.1633" gradientTransform="matrix(0.958 0.2868 0.2868 -0.958 -246.9539 517.8909)">
					<stop  offset="0" style="stop-color:#FFFFFF"/>
					<stop  offset="1" style="stop-color:#E5E6E7"/>
				</linearGradient>
				<path style="fill:url(#SVGID_00000123439052485312791410000000017634951945831830_);" d="M421.79,320.2
					c0,0-7.71,10.3-16.16,14.46s-16.84,10.4-20.16,19.19c-1.66,4.39-5.26,11.55-12.99,3.83c-7.73-7.72,1.75-27.99,12.43-32.05
					c4.56-1.73-0.9-6.44-5.13-6.94c-4.23-0.49-17.8-0.7-18.52-11.21c-0.72-10.51,5.66-11.17,5.66-11.17s-5.11-8.74,5.17-14.67
					c0,0-5.29-9.48,4.95-14.57c0,0,1.08-7.3,9.07-6.46c7.98,0.85,44.74,11.34,50.67,21.61l14.17,4.24l-11.53,38.51L421.79,320.2z"/>
			</g>
			<g>
				
					<linearGradient id="SVGID_00000118396597155373624270000018287085650064464285_" gradientUnits="userSpaceOnUse" x1="580.7618" y1="401.7443" x2="627.3093" y2="401.7443" gradientTransform="matrix(0.958 0.2868 0.2868 -0.958 -246.9539 517.8909)">
					<stop  offset="0" style="stop-color:#A5D2FF"/>
					<stop  offset="1" style="stop-color:#5C94F7"/>
				</linearGradient>
				<path style="fill:url(#SVGID_00000118396597155373624270000018287085650064464285_);" d="M442.44,281.81
					c0.72-2.42,3.3-3.8,5.71-3.08l25.73,7.71c2.42,0.72,3.8,3.29,3.08,5.71l-12.69,42.4c-0.72,2.42-3.29,3.8-5.71,3.08l-25.73-7.71
					c-2.42-0.72-3.8-3.29-3.08-5.71L442.44,281.81z"/>
				<g>
					<path class="st8" d="M446.64,293.28c0.72-2.4,3.25-3.76,5.65-3.04s3.76,3.25,3.04,5.65s-3.25,3.77-5.65,3.05
						C447.28,298.21,445.92,295.68,446.64,293.28z"/>
				</g>
			</g>
		</g>
	</g>
</g>
<g>
	<g>
		<path class="st43" d="M23.65,555.03c-12.71-23.57-3.9-52.97,19.67-65.68s52.97-3.9,65.68,19.67c12.71,23.57,3.9,52.97-19.67,65.68
			S36.35,578.61,23.65,555.03z"/>
	</g>
	<g>
		<g>
			<g>
				
					<linearGradient id="SVGID_00000090977578250549683030000004588776447501333175_" gradientUnits="userSpaceOnUse" x1="677.9747" y1="1426.9902" x2="724.3923" y2="1426.9902" gradientTransform="matrix(-0.8802 0.4746 0.4746 0.8802 11.0265 -1066.2894)">
					<stop  offset="0" style="stop-color:#FFFFFF"/>
					<stop  offset="1" style="stop-color:#E5E6E7"/>
				</linearGradient>
				<path style="fill:url(#SVGID_00000090977578250549683030000004588776447501333175_);" d="M60.4,529.6c0,0-1.05-7.29,0.69-12.4
					c1.73-5.11,2.61-11.03,0.4-15.92c-1.11-2.45-2.55-6.81,3.71-6.81c6.25,0,10.62,12.03,7.94,18c-1.15,2.55,2.97,2.24,4.88,0.74
					c1.91-1.52,7.48-6.92,12.03-2.96c4.54,3.96,2.23,6.81,2.23,6.81s5.61,1.47,3.85,8.03c0,0,5.98,1.7,3.9,7.9
					c0,0,2.51,3.39-1.06,6.28s-22.69,13.52-29.25,11.76l-7.46,4.01L51.34,534.8L60.4,529.6z"/>
			</g>
			<g>
				
					<linearGradient id="SVGID_00000121981017594961483070000002982354920110438073_" gradientUnits="userSpaceOnUse" x1="712.1001" y1="1439.9155" x2="738.7422" y2="1439.9155" gradientTransform="matrix(-0.8802 0.4746 0.4746 0.8802 11.0265 -1066.2894)">
					<stop  offset="0" style="stop-color:#A5D2FF"/>
					<stop  offset="1" style="stop-color:#5C94F7"/>
				</linearGradient>
				<path style="fill:url(#SVGID_00000121981017594961483070000002982354920110438073_);" d="M67.58,553.5
					c0.69,1.27,0.2,2.87-1.07,3.56l-13.54,7.29c-1.27,0.69-2.87,0.2-3.56-1.06L37.4,540.99c-0.69-1.27-0.2-2.87,1.07-3.56
					l13.54-7.29c1.27-0.69,2.87-0.2,3.56,1.06L67.58,553.5z"/>
				<g>
					<path class="st8" d="M61.25,550.55c0.68,1.26,0.2,2.84-1.06,3.52c-1.26,0.68-2.84,0.2-3.52-1.06c-0.68-1.26-0.2-2.84,1.06-3.52
						C58.99,548.82,60.56,549.29,61.25,550.55z"/>
				</g>
			</g>
		</g>
	</g>
</g>
<g>
	<g>
		
			<linearGradient id="SVGID_00000094600005075246371920000008944255472381888939_" gradientUnits="userSpaceOnUse" x1="205.1569" y1="573.6604" x2="313.3113" y2="493.6555" gradientTransform="matrix(0.958 0.2868 0.2868 -0.958 -246.9539 517.8909)">
			<stop  offset="0" style="stop-color:#E4A636"/>
			<stop  offset="1" style="stop-color:#D57A24"/>
		</linearGradient>
		<circle style="fill:url(#SVGID_00000094600005075246371920000008944255472381888939_);" cx="151.28" cy="76.77" r="66.24"/>
	</g>
	<g>
		<g>
			
				<linearGradient id="SVGID_00000091003085874347567280000004192881690476838549_" gradientUnits="userSpaceOnUse" x1="217.9218" y1="555.8728" x2="230.8277" y2="546.3259" gradientTransform="matrix(0.958 0.2868 0.2868 -0.958 -246.9539 517.8909)">
				<stop  offset="0" style="stop-color:#996514"/>
				<stop  offset="1" style="stop-color:#5B3E00"/>
			</linearGradient>
			<path style="fill:url(#SVGID_00000091003085874347567280000004192881690476838549_);" d="M133.74,56.59
				c-1.27,4.25-5.75,6.66-9.99,5.39c-4.25-1.27-6.66-5.75-5.39-9.99c1.27-4.25,5.75-6.66,10-5.39
				C132.6,47.87,135.02,52.34,133.74,56.59z"/>
			
				<linearGradient id="SVGID_00000023261343582809407420000017116988034414279091_" gradientUnits="userSpaceOnUse" x1="279.1525" y1="555.873" x2="292.0584" y2="546.3262" gradientTransform="matrix(0.958 0.2868 0.2868 -0.958 -246.9539 517.8909)">
				<stop  offset="0" style="stop-color:#996514"/>
				<stop  offset="1" style="stop-color:#5B3E00"/>
			</linearGradient>
			<path style="fill:url(#SVGID_00000023261343582809407420000017116988034414279091_);" d="M192.4,74.15
				c-1.27,4.25-5.75,6.66-9.99,5.39c-4.25-1.27-6.66-5.75-5.39-9.99c1.27-4.25,5.75-6.66,10-5.39
				C191.26,65.43,193.67,69.9,192.4,74.15z"/>
		</g>
		<g>
			
				<linearGradient id="SVGID_00000103953260745174778150000014993804090082910860_" gradientUnits="userSpaceOnUse" x1="242.2647" y1="522.4425" x2="270.3044" y2="501.7007" gradientTransform="matrix(0.958 0.2868 0.2868 -0.958 -246.9539 517.8909)">
				<stop  offset="0" style="stop-color:#996514"/>
				<stop  offset="1" style="stop-color:#5B3E00"/>
			</linearGradient>
			<path style="fill:url(#SVGID_00000103953260745174778150000014993804090082910860_);" d="M161.65,109.33
				c-0.78-0.23-1.41-0.89-1.57-1.75c-0.02-0.11-2.35-11.64-12.3-15.11c-9.93-3.45-19.4,5.06-19.5,5.15
				c-0.92,0.84-2.34,0.78-3.19-0.14c-0.84-0.92-0.78-2.34,0.13-3.19c0.46-0.43,11.54-10.44,24.04-6.09
				c12.44,4.35,15.14,17.96,15.25,18.54c0.23,1.23-0.57,2.41-1.8,2.64C162.35,109.45,161.99,109.43,161.65,109.33z"/>
		</g>
	</g>
</g>
</svg>
