<?xml version="1.0" encoding="utf-8"?>
<!-- Generator: Adobe Illustrator 27.2.0, SVG Export Plug-In . SVG Version: 6.00 Build 0)  -->
<svg version="1.1" id="Camada_1" xmlns="http://www.w3.org/2000/svg" xmlns:xlink="http://www.w3.org/1999/xlink" x="0px" y="0px"
	 viewBox="0 0 800 530" style="enable-background:new 0 0 800 530;" xml:space="preserve">
<style type="text/css">
	.st0{fill:#007CFF;}
	.st1{opacity:0.3;enable-background:new    ;}
	.st2{opacity:0.7;fill:#FFFFFF;enable-background:new    ;}
	.st3{opacity:0.3;}
	.st4{fill:#1A2E35;}
	.st5{opacity:0.3;fill:#FFFFFF;enable-background:new    ;}
	.st6{opacity:0.1;fill:#FFFFFF;enable-background:new    ;}
	.st7{opacity:0.2;}
	.st8{fill:#FFFFFF;}
	.st9{fill:#042236;}
	.st10{clip-path:url(#SVGID_00000095340775210119263310000002790770868032862348_);}
	.st11{fill:#E1E1E1;}
	.st12{fill:#F0F0F0;}
</style>
<g>
	<g>
		<path class="st0" d="M56.75,276.16c0,0-16.51,4.9-17.99,9.68c-1.59,5.12,9.11,41.11,16.28,41.67c7.17,0.57,18.1-6.15,18.1-6.15
			L56.75,276.16z"/>
		<path class="st0" d="M107.53,335.03c0,0,21.63,94.96,23.57,101.11c1.94,6.15,53.06,2.73,52.15-1.94
			c-1.02-4.55-12.98-12.3-12.53-18.45c0.46-6.15,5.81-16.06,4.78-21.07c-1.02-5.01-14.92-9.56-13.55-17.65
			c1.48-8.08,8.77-14.12,9.22-19.81c0.46-5.69-3.87-22.77-3.87-22.77L107.53,335.03z"/>
		<path class="st1" d="M107.53,335.03c0,0,21.63,94.96,23.57,101.11c1.94,6.15,53.06,2.73,52.15-1.94
			c-1.02-4.55-12.98-12.3-12.53-18.45c0.46-6.15,5.81-16.06,4.78-21.07c-1.02-5.01-14.92-9.56-13.55-17.65
			c1.48-8.08,8.77-14.12,9.22-19.81c0.46-5.69-3.87-22.77-3.87-22.77L107.53,335.03z"/>
		<path class="st0" d="M67.11,318.86c0,0-35.87-59.21,25.96-83.46l30.17,99.4C123.25,334.8,81.46,343.34,67.11,318.86z"/>
		<g>
			<path class="st0" d="M95.23,234.14c0,0,50.67-29.95,69.34-41.9c34.84-22.2,55-48.73,55-48.73L290.17,343
				c0,0-67.07-5.12-103.16-7.4s-68.21-0.57-68.21-0.57S92.96,311,89.54,272.52C86.01,234.14,95.23,234.14,95.23,234.14z"/>
			<path class="st2" d="M95.23,234.14c0,0,50.67-29.95,69.34-41.9c34.84-22.2,55-48.73,55-48.73L290.17,343
				c0,0-67.07-5.12-103.16-7.4s-68.21-0.57-68.21-0.57S92.96,311,89.54,272.52C86.01,234.14,95.23,234.14,95.23,234.14z"/>
		</g>
		
			<ellipse transform="matrix(0.9733 -0.2296 0.2296 0.9733 -43.0395 75.5838)" class="st0" cx="303.29" cy="222.74" rx="88.47" ry="139.03"/>
		
			<ellipse transform="matrix(0.9733 -0.2296 0.2296 0.9733 -42.9588 76.5536)" class="st1" cx="307.49" cy="222.88" rx="66.16" ry="115.35"/>
		<g class="st3">
			<path d="M244.17,152.39c11.73-3.19,30.4,10.36,41.79,23.34c35.53,40.65,40.31,105.44,11.61,151.1
				C252.14,298.25,225.16,212.74,244.17,152.39"/>
		</g>
		<path class="st0" d="M92.84,335.03c0,0,17.88,98.27,19.47,104.64c1.59,6.38,43.72,2.73,42.93-1.94
			c-0.8-4.67-10.7-12.75-10.36-19.02c0.46-6.38,4.78-16.62,3.99-21.86s-12.3-9.91-11.16-18.22c1.14-8.31,7.17-14.57,7.63-20.61
			c0.46-5.92-3.19-23.57-3.19-23.57L92.84,335.03z"/>
		<g>
			<path class="st0" d="M243.15,238.01c3.64,15.49,9,29.95,15.37,42.59c3.42-1.59,67.18-30.17,69-32.11
				c1.94-1.94-15.14-59.44-15.14-59.44l-74.47,12.3C238.48,213.08,240.19,225.37,243.15,238.01z"/>
			<path class="st2" d="M243.15,238.01c3.64,15.49,9,29.95,15.37,42.59c3.42-1.59,67.18-30.17,69-32.11
				c1.94-1.94-15.14-59.44-15.14-59.44l-74.47,12.3C238.48,213.08,240.19,225.37,243.15,238.01z"/>
			
				<ellipse transform="matrix(0.9733 -0.2296 0.2296 0.9733 -41.6595 79.2925)" class="st0" cx="319.91" cy="218.67" rx="17.31" ry="30.52"/>
		</g>
		<g class="st3">
			<g>
				<path d="M147.95,363.04c5.81-0.68,11.73-1.37,17.54-1.94c0.91-0.11,1.71-0.68,1.71-1.71c0-0.8-0.8-1.82-1.71-1.71
					c-5.81,0.68-11.73,1.37-17.54,1.94c-0.91,0.11-1.71,0.68-1.71,1.71C146.25,362.13,147.04,363.15,147.95,363.04L147.95,363.04z"
					/>
			</g>
		</g>
		<g class="st3">
			<g>
				<path d="M151.6,395.49c7.06-0.68,14.23-1.25,21.41-1.59c2.16-0.11,2.16-3.53,0-3.42c-7.17,0.34-14.23,0.91-21.41,1.59
					c-0.91,0.11-1.71,0.68-1.71,1.71C149.89,394.58,150.69,395.49,151.6,395.49L151.6,395.49z"/>
			</g>
		</g>
		<path class="st4" d="M147.95,334.57c-0.8,0.11,2.39,19.93,5.92,20.15c3.53,0.23,22.89-0.68,23-2.39
			c0.23-3.99-4.55-17.54-4.55-17.54S153.88,333.43,147.95,334.57z"/>
		<g class="st3">
			<g>
				<path d="M42.06,299.05c1.94-0.46,3.99-1.02,5.92-1.48c0.91-0.23,1.48-1.25,1.25-2.16c-0.34-0.91-1.14-1.37-2.16-1.14
					c-1.94,0.46-3.99,1.02-5.92,1.48c-0.91,0.23-1.48,1.25-1.25,2.16C40.24,298.7,41.15,299.27,42.06,299.05L42.06,299.05z"/>
			</g>
		</g>
		<g class="st3">
			<g>
				<path d="M43.77,305.76c1.94-0.46,3.99-1.02,5.92-1.48c0.91-0.23,1.48-1.25,1.25-2.16c-0.34-0.91-1.14-1.37-2.16-1.14
					c-1.94,0.46-3.99,1.02-5.92,1.48c-0.91,0.23-1.48,1.25-1.25,2.16C41.95,305.54,42.86,305.99,43.77,305.76L43.77,305.76z"/>
			</g>
		</g>
		<g class="st3">
			<g>
				<path d="M46.39,312.48c1.94-0.46,3.99-1.02,5.92-1.48c0.91-0.23,1.48-1.25,1.25-2.16c-0.34-0.91-1.14-1.37-2.16-1.14
					c-1.94,0.46-3.99,1.02-5.92,1.48c-0.91,0.23-1.48,1.25-1.25,2.16C44.68,312.25,45.48,312.71,46.39,312.48L46.39,312.48z"/>
			</g>
		</g>
		<g class="st3">
			<g>
				<path d="M49.35,319.66c1.94-0.46,3.99-1.02,5.92-1.48c0.91-0.23,1.48-1.25,1.25-2.16c-0.34-0.91-1.14-1.37-2.16-1.14
					c-1.94,0.46-3.99,1.02-5.92,1.48c-0.91,0.23-1.48,1.25-1.25,2.16C47.53,319.43,48.44,319.88,49.35,319.66L49.35,319.66z"/>
			</g>
		</g>
		<path class="st5" d="M96.72,239.49c0,0-5.01,32.91,5.47,46.34c10.48,13.44,112.61-28.58,112.61-28.58s-17.76-43.61-8.54-76.86
			c2.85-10.36,3.42-14.12,1.59-13.55c-3.99,1.25-18.79,21.41-50.78,38.49C135.2,216.83,96.72,239.49,96.72,239.49z"/>
		<path class="st1" d="M92.84,335.03l1.82,9.91c0,0,79.14,0.57,80.05-2.96l-2.28-7.06C159.23,333.66,124.73,334.46,92.84,335.03z"/>
		<path class="st1" d="M277.08,272.17c-20.15-30.74-22.32-64.33-22.55-73.67l-16.51,2.73c0.46,11.84,2.16,24.14,5.12,36.66
			c3.64,15.49,9,29.95,15.37,42.59C259.66,280.03,267.29,276.61,277.08,272.17z"/>
		<path class="st1" d="M56.75,276.16c3.19,16.62,7.4,32.34,13.32,46.91l-2.96,1.48c-1.48,0.68-16.62-46.34-14.46-47.03
			C53.45,277.3,56.75,276.16,56.75,276.16z"/>
		<path class="st6" d="M292.79,117.09c-1.71-0.34-16.97,30.4-15.6,34.84c1.25,4.44,21.18,28.81,26.08,28.81s47.03-1.94,47.03-7.17
			C350.29,168.33,329.11,124.83,292.79,117.09z"/>
		<path class="st6" d="M330.6,263.86c0,0-12.41,41.9-10.59,45.55c1.82,3.64,30.86,0.8,37.35-6.03c6.6-6.72,13.66-40.08,13.09-45.55
			C369.88,252.47,330.6,263.86,330.6,263.86z"/>
		<g class="st7">
			<path class="st8" d="M145.22,430.79c-1.14-3.64-6.15-4.21-7.74-7.4c-2.05-3.99,2.16-8.43,1.82-12.75
				c-0.23-2.85-2.39-5.12-4.9-6.49c-2.51-1.25-5.35-1.71-8.2-2.05c-4.44-0.57-10.13-1.02-14.01,1.37
				c0.11,6.72,2.16,15.03,4.21,21.52c0.8,2.73,1.94,5.47,4.1,7.29c1.94,1.71,4.67,2.28,7.17,2.62c4.44,0.68,8.88,0.8,13.32,0.34
				c1.59-0.11,3.42-0.46,4.1-2.05C145.45,432.38,145.45,431.47,145.22,430.79z"/>
		</g>
	</g>
	<path class="st9" d="M540.45,275.82L540.45,275.82l-7.06,71.62H399.03l-7.74,77.66h-31.54l5.01-49.76
		c6.03-3.42,11.61-7.86,16.62-12.41c6.38-5.81,11.96-12.98,16.74-20.15c5.24-7.86,9.11-16.51,12.64-25.28
		c6.95-16.85,9.91-35.3,11.27-53.4c0.68-10.02,0.57-20.04-0.23-30.06c-1.14-12.98-3.07-26.08-6.03-38.83
		c-2.39-10.25-5.58-20.38-9.45-30.17c-4.55-11.27-9.45-22.43-15.6-33.02c-5.69-9.79-12.53-19.02-19.81-27.78
		c-5.47-6.6-11.5-12.75-18.1-18.1c-7.74-6.26-15.6-12.3-24.59-16.62c-8.43-4.1-17.31-7.74-26.53-9.22
		c-5.58-0.91-11.39-1.82-17.08-1.82c-5.69,0-11.5,0.8-17.08,1.82c-3.87,0.68-7.63,1.71-11.27,3.19c-6.03,2.39-11.96,4.9-17.42,8.43
		c-5.35,3.53-10.48,7.52-15.14,11.96c-4.78,4.55-8.77,9.91-12.75,15.14c-7.06,9.45-11.96,20.27-16.17,31.2
		c-0.11,0.34-0.23,0.68-0.34,1.02c-8.77,9.91-18.56,19.02-28.92,27.21c-12.41,9.22-25.73,17.19-38.94,25.16
		c-12.3,7.4-24.59,14.8-37.01,22.09c-2.51,1.48-4.9,2.96-7.4,4.44c-0.68,0.23-1.37,0.57-2.05,1.02c-0.23,0.23-0.57,0.46-0.91,0.68
		c-4.44,1.94-8.88,3.99-13.09,6.6c-3.76,2.28-7.17,5.12-10.59,7.74c-1.59,1.25-3.19,2.62-4.67,3.99c-1.37,1.37-2.62,2.73-3.87,4.21
		c-2.51,3.07-5.01,6.26-7.17,9.56c-2.28,3.64-4.1,7.63-5.58,11.61c-1.82,0.91-3.64,1.82-5.35,2.85c-3.19,1.94-6.26,4.1-8.77,6.83
		c-1.82,2.05-3.64,4.21-4.9,6.6c-2.85,5.01-2.73,6.15-3.42,10.93c-0.23,1.71-0.57,3.42-0.57,5.24c0.11,3.19,0.8,6.72,1.25,9.68
		c0.34,2.28,0.8,4.55,1.37,6.72c1.37,5.47,3.07,10.82,5.12,16.06c1.82,4.44,3.53,9,5.81,13.32c2.05,3.99,4.67,7.4,7.52,10.82
		c0.91,1.14,1.94,2.16,3.07,3.07H17.81L3.35,492.28h91.66l2.96-28.58l1.71-15.49h32.45L127,492.28h134.25h11.84l-2.96,30.86h29.15
		h21.18h11.5h32.11h4.21h16.97h11.5h32.91h3.42h26.76h6.15h26.53h3.64H508h20.72h11.61h22.89h9.91h3.64h32.68h17.54l17.65-13.66
		l23.57-233.42L540.45,275.82L540.45,275.82z"/>
	<g>
		<polygon class="st8" points="145.45,395.15 148.3,366.8 35.34,366.8 24.75,472.8 77.47,472.8 81.8,431.59 141.81,431.59 
			144.08,408.02 84.19,408.02 85.33,395.15 		"/>
		<path class="st8" d="M158.89,366.8l-10.59,105.9h55.34l2.73-28.35h12.98l-2.85,28.35h55.45l10.59-105.9H158.89z M223.56,402.32
			c-0.34,2.85-0.57,5.58-0.8,8.2c-0.34,3.07-0.57,6.15-0.91,9.22h-12.87l2.39-24.71h12.87C224.13,397.2,223.79,399.59,223.56,402.32
			z"/>
		<polygon class="st8" points="346.08,366.8 293.13,366.8 282.54,472.8 395.61,472.8 398.35,444.45 338.34,444.45 		"/>
		<path class="st8" d="M416.56,366.8l-10.59,105.9h55.34l2.73-28.35h12.98l-2.85,28.35h55.34l10.59-105.9H416.56z M481.24,402.32
			c-0.34,2.85-0.57,5.58-0.8,8.2c-0.34,3.07-0.57,6.15-0.91,9.22h-12.87l2.39-24.71h12.87C481.81,397.2,481.47,399.59,481.24,402.32
			z"/>
		<polygon class="st8" points="557.98,295.17 546.83,407.56 635.53,407.56 646.8,295.17 		"/>
		<polygon class="st8" points="540.22,472.8 628.7,472.8 633.82,425.32 545,425.32 		"/>
	</g>
	<g>
		<polygon class="st8" points="307.03,484.65 305.09,503.55 291.88,503.55 291.31,510.49 313.4,510.49 318.41,506.28 320.46,484.65 
					"/>
		<path class="st8" d="M323.08,484.65l-2.62,25.85h13.55l0.68-6.83h3.19l-0.68,6.83h13.55l2.62-25.85H323.08z M338.79,493.3
			c-0.11,0.68-0.11,1.37-0.23,2.05c-0.11,0.68-0.11,1.48-0.23,2.28h-3.19l0.57-6.03h3.19C338.91,492.05,338.91,492.62,338.79,493.3z
			"/>
		<polygon class="st8" points="384.23,495.81 385.25,484.65 355.76,484.65 353.25,510.49 378.19,510.49 383.2,506.28 383.88,498.99 
			370.45,498.99 369.88,503.55 366.8,503.55 367.94,491.59 371.13,491.59 370.68,495.81 		"/>
		<path class="st8" d="M387.87,484.65l-2.62,25.85h13.55l0.68-6.83h3.19l-0.68,6.83h13.44l2.62-25.85H387.87z M403.58,493.3
			c-0.11,0.68-0.11,1.37-0.23,2.05c-0.11,0.68-0.11,1.48-0.23,2.28h-3.19l0.57-6.03h3.19C403.7,492.05,403.7,492.62,403.58,493.3z"
			/>
		<path class="st8" d="M450.95,484.65h-30.4l-2.62,25.85h13.78l0.68-6.83h3.19l-0.68,6.83h13.44l1.02-10.48l-5.81-2.05l6.26-2.39
			L450.95,484.65z M436.49,494.67h-3.19l0.34-3.19h3.19L436.49,494.67z"/>
		<polygon class="st8" points="480.33,491.59 481.01,484.65 453.57,484.65 450.95,510.49 478.51,510.49 479.08,503.55 464.5,503.55 
			464.84,500.47 479.42,500.47 479.99,494.67 465.41,494.67 465.75,491.59 		"/>
		<polygon class="st8" points="513.69,484.65 483.63,484.65 482.95,491.59 494.9,491.59 481.81,502.3 481.01,510.49 511.19,510.49 
			511.87,503.55 500.37,503.55 512.89,493.07 		"/>
		<polygon class="st8" points="513.69,510.49 526.56,510.49 529.18,484.65 516.31,484.65 		"/>
		<polygon class="st8" points="548.19,484.65 547.17,495.01 543.07,484.65 531.91,484.65 529.29,510.49 542.5,510.49 543.41,501.04 
			547.28,510.49 559.12,510.49 561.74,484.65 		"/>
		<polygon class="st8" points="580.87,484.65 579.96,494.67 576.77,494.67 577.8,484.65 564.25,484.65 561.74,510.49 575.18,510.49 
			576.2,500.47 579.39,500.47 578.37,510.49 591.8,510.49 594.42,484.65 		"/>
		<path class="st8" d="M594.42,510.49h25.51l5.01-4.21l2.16-21.63h-30.06L594.42,510.49z M609.79,491.59h3.19l-1.14,11.96h-3.19
			L609.79,491.59z"/>
	</g>
	<g>
		<g>
			<g>
				<g>
					<defs>
						<path id="SVGID_1_" d="M46.27,243.25l126.73-62.4l26.87-31.88c0,0,13.32-45.2,16.97-46.8c3.64-1.59,66.04-33.48,66.04-33.48
							l52.38,19.93l44.41,39.74l26.3,57.27l16.28,57.5l-14.57,81.3l-41.56,35.87l-83.69,6.49l-32.57-18.79l-60.58-8.54v20.72
							l-127.98-0.8l-26.99-23.11l-9.56-50.44L46.27,243.25z"/>
					</defs>
					<clipPath id="SVGID_00000048469442537662186620000006664559376204270007_">
						<use xlink:href="#SVGID_1_"  style="overflow:visible;"/>
					</clipPath>
					<g style="clip-path:url(#SVGID_00000048469442537662186620000006664559376204270007_);">
						<path class="st0" d="M56.75,276.16c0,0-16.51,4.9-17.99,9.68c-1.59,5.12,9.11,41.11,16.28,41.67
							c7.17,0.57,18.1-6.15,18.1-6.15L56.75,276.16z"/>
						<path class="st0" d="M107.53,335.03c0,0,21.63,94.96,23.57,101.11c1.94,6.15,53.06,2.73,52.15-1.94
							c-1.02-4.55-12.98-12.3-12.53-18.45c0.46-6.15,5.81-16.06,4.78-21.07c-1.02-5.01-14.92-9.56-13.55-17.65
							c1.48-8.08,8.77-14.12,9.22-19.81c0.46-5.69-3.87-22.77-3.87-22.77L107.53,335.03z"/>
						<path class="st1" d="M107.53,335.03c0,0,21.63,94.96,23.57,101.11c1.94,6.15,53.06,2.73,52.15-1.94
							c-1.02-4.55-12.98-12.3-12.53-18.45c0.46-6.15,5.81-16.06,4.78-21.07c-1.02-5.01-14.92-9.56-13.55-17.65
							c1.48-8.08,8.77-14.12,9.22-19.81c0.46-5.69-3.87-22.77-3.87-22.77L107.53,335.03z"/>
						<path class="st0" d="M67.11,318.86c0,0-35.87-59.21,25.96-83.46l30.17,99.4C123.25,334.8,81.46,343.34,67.11,318.86z"/>
						<g>
							<path class="st0" d="M95.23,234.14c0,0,50.67-29.95,69.34-41.9c34.84-22.2,55-48.73,55-48.73L290.17,343
								c0,0-67.07-5.12-103.16-7.4s-68.21-0.57-68.21-0.57S92.96,311,89.54,272.52C86.01,234.14,95.23,234.14,95.23,234.14z"/>
							<path class="st2" d="M95.23,234.14c0,0,50.67-29.95,69.34-41.9c34.84-22.2,55-48.73,55-48.73L290.17,343
								c0,0-67.07-5.12-103.16-7.4s-68.21-0.57-68.21-0.57S92.96,311,89.54,272.52C86.01,234.14,95.23,234.14,95.23,234.14z"/>
						</g>
						
							<ellipse transform="matrix(0.9733 -0.2296 0.2296 0.9733 -43.0395 75.5838)" class="st0" cx="303.29" cy="222.74" rx="88.47" ry="139.03"/>
						
							<ellipse transform="matrix(0.9733 -0.2296 0.2296 0.9733 -42.9588 76.5536)" class="st1" cx="307.49" cy="222.88" rx="66.16" ry="115.35"/>
						<g class="st3">
							<path d="M244.17,152.39c11.73-3.19,30.4,10.36,41.79,23.34c35.53,40.65,40.31,105.44,11.61,151.1
								C252.14,298.25,225.16,212.74,244.17,152.39"/>
						</g>
						<path class="st0" d="M92.84,335.03c0,0,17.88,98.27,19.47,104.64c1.59,6.38,43.72,2.73,42.93-1.94
							c-0.8-4.67-10.7-12.75-10.36-19.02c0.46-6.38,4.78-16.62,3.99-21.86s-12.3-9.91-11.16-18.22c1.14-8.31,7.17-14.57,7.63-20.61
							c0.46-5.92-3.19-23.57-3.19-23.57L92.84,335.03z"/>
						<g>
							<path class="st0" d="M243.15,238.01c3.64,15.49,9,29.95,15.37,42.59c3.42-1.59,67.18-30.17,69-32.11
								c1.94-1.94-15.14-59.44-15.14-59.44l-74.47,12.3C238.48,213.08,240.19,225.37,243.15,238.01z"/>
							<path class="st2" d="M243.15,238.01c3.64,15.49,9,29.95,15.37,42.59c3.42-1.59,67.18-30.17,69-32.11
								c1.94-1.94-15.14-59.44-15.14-59.44l-74.47,12.3C238.48,213.08,240.19,225.37,243.15,238.01z"/>
							
								<ellipse transform="matrix(0.9733 -0.2296 0.2296 0.9733 -41.6595 79.2925)" class="st0" cx="319.91" cy="218.67" rx="17.31" ry="30.52"/>
						</g>
						<g class="st3">
							<g>
								<path d="M147.95,363.04c5.81-0.68,11.73-1.37,17.54-1.94c0.91-0.11,1.71-0.68,1.71-1.71c0-0.8-0.8-1.82-1.71-1.71
									c-5.81,0.68-11.73,1.37-17.54,1.94c-0.91,0.11-1.71,0.68-1.71,1.71C146.25,362.13,147.04,363.15,147.95,363.04
									L147.95,363.04z"/>
							</g>
						</g>
						<g class="st3">
							<g>
								<path d="M151.6,395.49c7.06-0.68,14.23-1.25,21.41-1.59c2.16-0.11,2.16-3.53,0-3.42c-7.17,0.34-14.23,0.91-21.41,1.59
									c-0.91,0.11-1.71,0.68-1.71,1.71C149.89,394.58,150.69,395.49,151.6,395.49L151.6,395.49z"/>
							</g>
						</g>
						<path class="st4" d="M147.95,334.57c-0.8,0.11,2.39,19.93,5.92,20.15c3.53,0.23,22.89-0.68,23-2.39
							c0.23-3.99-4.55-17.54-4.55-17.54S153.88,333.43,147.95,334.57z"/>
						<g class="st3">
							<g>
								<path d="M42.06,299.05c1.94-0.46,3.99-1.02,5.92-1.48c0.91-0.23,1.48-1.25,1.25-2.16c-0.34-0.91-1.14-1.37-2.16-1.14
									c-1.94,0.46-3.99,1.02-5.92,1.48c-0.91,0.23-1.48,1.25-1.25,2.16C40.24,298.7,41.15,299.27,42.06,299.05L42.06,299.05z"/>
							</g>
						</g>
						<g class="st3">
							<g>
								<path d="M43.77,305.76c1.94-0.46,3.99-1.02,5.92-1.48c0.91-0.23,1.48-1.25,1.25-2.16c-0.34-0.91-1.14-1.37-2.16-1.14
									c-1.94,0.46-3.99,1.02-5.92,1.48c-0.91,0.23-1.48,1.25-1.25,2.16C41.95,305.54,42.86,305.99,43.77,305.76L43.77,305.76z"/>
							</g>
						</g>
						<g class="st3">
							<g>
								<path d="M46.39,312.48c1.94-0.46,3.99-1.02,5.92-1.48c0.91-0.23,1.48-1.25,1.25-2.16c-0.34-0.91-1.14-1.37-2.16-1.14
									c-1.94,0.46-3.99,1.02-5.92,1.48c-0.91,0.23-1.48,1.25-1.25,2.16C44.68,312.25,45.48,312.71,46.39,312.48L46.39,312.48z"/>
							</g>
						</g>
						<g class="st3">
							<g>
								<path d="M49.35,319.66c1.94-0.46,3.99-1.02,5.92-1.48c0.91-0.23,1.48-1.25,1.25-2.16c-0.34-0.91-1.14-1.37-2.16-1.14
									c-1.94,0.46-3.99,1.02-5.92,1.48c-0.91,0.23-1.48,1.25-1.25,2.16C47.53,319.43,48.44,319.88,49.35,319.66L49.35,319.66z"/>
							</g>
						</g>
						<path class="st5" d="M96.72,239.49c0,0-5.01,32.91,5.47,46.34c10.48,13.44,112.61-28.58,112.61-28.58s-17.76-43.61-8.54-76.86
							c2.85-10.36,3.42-14.12,1.59-13.55c-3.99,1.25-18.79,21.41-50.78,38.49C135.2,216.83,96.72,239.49,96.72,239.49z"/>
						<path class="st1" d="M92.84,335.03l1.82,9.91c0,0,79.14,0.57,80.05-2.96l-2.28-7.06C159.23,333.66,124.73,334.46,92.84,335.03
							z"/>
						<path class="st1" d="M277.08,272.17c-20.15-30.74-22.32-64.33-22.55-73.67l-16.51,2.73c0.46,11.84,2.16,24.14,5.12,36.66
							c3.64,15.49,9,29.95,15.37,42.59C259.66,280.03,267.29,276.61,277.08,272.17z"/>
						<path class="st1" d="M56.75,276.16c3.19,16.62,7.4,32.34,13.32,46.91l-2.96,1.48c-1.48,0.68-16.62-46.34-14.46-47.03
							C53.45,277.3,56.75,276.16,56.75,276.16z"/>
						<path class="st6" d="M292.79,117.09c-1.71-0.34-16.97,30.4-15.6,34.84c1.25,4.44,21.18,28.81,26.08,28.81
							s47.03-1.94,47.03-7.17C350.29,168.33,329.11,124.83,292.79,117.09z"/>
						<path class="st6" d="M330.6,263.86c0,0-12.41,41.9-10.59,45.55c1.82,3.64,30.86,0.8,37.35-6.03
							c6.6-6.72,13.66-40.08,13.09-45.55C369.88,252.47,330.6,263.86,330.6,263.86z"/>
						<g class="st7">
							<path class="st8" d="M145.22,430.79c-1.14-3.64-6.15-4.21-7.74-7.4c-2.05-3.99,2.16-8.43,1.82-12.75
								c-0.23-2.85-2.39-5.12-4.9-6.49c-2.51-1.25-5.35-1.71-8.2-2.05c-4.44-0.57-10.13-1.02-14.01,1.37
								c0.11,6.72,2.16,15.03,4.21,21.52c0.8,2.73,1.94,5.47,4.1,7.29c1.94,1.71,4.67,2.28,7.17,2.62c4.44,0.68,8.88,0.8,13.32,0.34
								c1.59-0.11,3.42-0.46,4.1-2.05C145.45,432.38,145.45,431.47,145.22,430.79z"/>
						</g>
					</g>
				</g>
			</g>
		</g>
	</g>
	<g>
		<path class="st11" d="M120.63,25.2c1.02,1.02,33.48,49.87,33.48,49.87s11.04-26.42,13.09-25.16c2.05,1.25,24.82,40.88,24.82,40.08
			s-18.79-65.81-23.34-63.42c-4.55,2.51-13.89,19.7-13.89,19.7l-20.15-39.4L120.63,25.2z"/>
		<path class="st12" d="M102.18,119.25c0.91,0.11,37.58,11.39,37.58,11.39s-5.35-17.99-3.76-18.22
			c1.59-0.23,29.49,10.36,29.15,10.02c-0.34-0.34-36.78-25.51-38.14-22.43c-1.25,3.19,1.14,15.71,1.14,15.71l-26.53-11.61
			L102.18,119.25z"/>
		<path class="st0" d="M493.54,205.22c-0.91-0.34-30.86-22.66-30.86-22.66s-0.91,18.22-2.39,17.99
			c-1.48-0.23-23.68-19.13-23.46-18.67c0.23,0.46,25.51,35.41,27.67,32.91c2.28-2.51,4.1-14.8,4.1-14.8l20.61,19.24L493.54,205.22z"
			/>
		<path class="st0" d="M504.01,115.27c-1.14,0.46-48.73,7.86-48.73,7.86s15.94,17.31,14.35,18.45s-39.06,4.55-38.37,4.78
			c0.68,0.23,55.57,8.54,55.34,4.21c-0.23-4.33-10.02-17.08-10.02-17.08l36.32-1.59L504.01,115.27z"/>
		<path class="st0" d="M458.12,58.68c-0.46,0.68-25.73,22.32-25.73,22.32s15.71,4.44,15.14,5.69c-0.57,1.25-21.29,16.85-20.84,16.74
			c0.46-0.11,35.75-15.14,34.05-17.54c-1.71-2.39-12.07-6.49-12.07-6.49l20.72-14.12L458.12,58.68z"/>
	</g>
</g>
</svg>
