<?xml version="1.0" encoding="utf-8"?>
<!-- Generator: Adobe Illustrator 27.2.0, SVG Export Plug-In . SVG Version: 6.00 Build 0)  -->
<svg version="1.1" id="Camada_1" xmlns="http://www.w3.org/2000/svg" xmlns:xlink="http://www.w3.org/1999/xlink" x="0px" y="0px"
	 viewBox="0 0 1600 900" style="enable-background:new 0 0 1600 900;" xml:space="preserve">
<style type="text/css">
	.st0{fill:#383838;}
</style>
<g>
	<path class="st0" d="M848.1,572.5c0-2-1.1-3.4-2.6-3.4c-3.5,0-5.8,6-6.4,12C844.4,580.5,848.1,576.2,848.1,572.5z"/>
	<path class="st0" d="M812.7,556.8c-1.8,0-4.1,1-5.3,1.6c-1.3,9.6-4.6,22.6-5.9,33.1c10.4-0.1,15.7-14.6,15.7-26.3
		C817.2,558.2,815.2,556.8,812.7,556.8z"/>
	<path class="st0" d="M642.3,556.8c-1.8,0-4.1,1-5.3,1.6c-1.3,9.6-4.6,22.6-5.9,33.1c10.4-0.1,15.7-14.6,15.7-26.3
		C646.8,558.2,644.8,556.8,642.3,556.8z"/>
	<path class="st0" d="M922.6,570.3c-4,0-7.8,6.3-7.8,13.8c0,4.4,1.4,7.1,4.3,7.1c4.9,0,7.4-7.5,7.4-14.7
		C926.5,572.9,925.6,570.3,922.6,570.3z"/>
	<path class="st0" d="M677.7,572.5c0-2-1.1-3.4-2.6-3.4c-3.5,0-5.8,6-6.4,12C674,580.5,677.7,576.2,677.7,572.5z"/>
	<path class="st0" d="M995,572.5c0-2-1.1-3.4-2.6-3.4c-3.5,0-5.8,6-6.4,12C991.4,580.5,995,576.2,995,572.5z"/>
	<path class="st0" d="M1180.9,255.1c-20.9,0.1-39.4,10.1-50.8,25.5h-41.4v87.2l-67.1-87.2H909.9v84.6c-19.4-4.6-39-6.9-58.4-6.9
		c-26,0-49.5,4.2-69.7,12.5c-1.1,0.5-2.2,0.9-3.3,1.4c-5.1-24.7-17.1-45-35.9-60.8c-24.4-20.5-58.1-30.8-100.3-30.8H488.1V365H327.9
		v120.5h90.4v75.1c-2.2-0.7-5.1-1.9-8.7-3.7c-7.5-3.8-15.4-9.8-23.3-17.7l-21.5-21.5l-69,98.5l13.7,15.1
		c33,36.3,74.2,54.7,122.5,54.7c37.3,0,67.8-10.5,90.5-31.4c16.3-15,27.1-34.1,32-56.9h39.9c1,6.9,3.8,13,8,17.7l-0.2,1.8l2,0
		c6.4,6.2,15.6,9.8,26.3,9.8c8.2,0,15.9-2,22.8-5.5c6.5,3.5,14.3,5.5,22.8,5.5c4.2,0,8.2-0.4,12-1.2l0,0.1l16.6,12.7
		c19.7,15.1,43.2,27.2,69.8,35.8c26.3,8.5,52.9,12.8,79,12.8c7.9,0,15.6-0.4,23.1-1.2l18.3-2.9c8.3-1.8,16.4-4.1,24.1-6.9
		c6.5-2.4,12.7-5.3,18.5-8.6l1.4-0.8c12.5-7.4,23.2-16.7,31.8-28c3.2-4.1,6-8.5,8.5-13.2c0.3-0.1,0.5-0.2,0.8-0.2
		c4.3,1.2,8.8,1.8,13.5,1.8c7.4,0,14.2-1.3,20.4-3.8c5,2.5,10.8,3.8,17.1,3.8c18.6,0,33.4-11,40.7-30.3c4-10.6,2.1-22-5.1-30.4
		c-1.3-1.5-2.7-2.9-4.2-4.1c-0.4-6-2.5-11.5-6-16.1l-8.8-7.8l-6.5-4v-23.2l66.8,86.6h111.7V366.8c1.9-1.4,3.7-2.9,5.4-4.6
		c12.2-11.6,18.9-27.3,18.9-44.4v-62.8L1180.9,255.1L1180.9,255.1z M768.4,407.5c6.7-5.2,14.4-9.6,23.1-13.2
		c17.2-7.1,37.2-10.6,60-10.6c20.8,0,41.4,2.9,62.1,8.7c20.6,5.8,38.5,13.5,53.7,23.2l-31.9,67.2c-14.4-8.4-30.5-15.7-48.2-22
		c-17.7-6.3-32.2-9.5-43.3-9.5c-10.9,0-16.3,3.9-16.3,11.8c0,6.1,3.5,10.8,10.4,14c7,3.3,18,7,33.2,11c19,5.3,34.7,10.6,47.3,16
		c12.5,5.3,23.5,13.7,32.8,25.2c4.2,5.2,7.5,11.2,9.8,17.9c-2.5,0.2-5,0.7-7.5,1.7c-1.5-0.4-3.2-0.7-4.9-0.7c-2,0-3.7,0.3-5.1,0.5
		c-0.5,0.1-1.3,0.2-1.6,0.2h-1.4c-0.1,0-0.3-0.1-0.4-0.1l-6-0.6c-1.7,0.1-3.3,0.4-4.7,0.7c-2.7-1.2-5.7-1.8-8.8-1.8
		c-1.2,0-2.4,0.1-3.5,0.2c-0.9-9.2-8.5-15.9-18.3-15.9c-0.3,0-0.7,0-1,0l-4.2,0.6c-7.1,1.8-12.8,7.3-14.9,14.3l-5.1,0.8
		c-3.2,0.5-5.7,0.8-8.7,0.7l-5.8-0.3l-8.3-0.5l0,0.3c-1.5-0.2-3-0.4-4.6-0.4c-2.2,0-4.4,0.2-6.5,0.7c-4.6-9.8-13.4-14.4-22.1-14.4
		c-3.7,0-6.8,0.7-9.5,1.6c-1.5-0.3-3-0.5-4.7-0.5c-2.1,0-4.2,0.3-6.1,0.6c-0.5,0.1-1.1,0.2-1.5,0.2h-13.1l0.1,3.5
		c-12.2-5.2-22.8-13.1-31.7-23.8c-7.2-8.6-11.5-19.5-13-32.6c7.3-7.2,13.3-15.6,18.1-25.1C763.6,442.9,767.7,426.2,768.4,407.5z
		 M915.1,600.8c-2.9,0-5.8-0.9-8-3.1c-2.7,2.3-6,3.8-10.2,3.8c-5.3,0-10.1-2.5-10.3-10.2c-2.1,5.7-7.4,9.8-14.7,9.8
		c-2.5,0-4.3-0.5-5.1-0.9c-0.8-0.8,0.6-5.3,1.4-7.7c6,0,8.2-3.3,8.2-7.5c0-4.5-3.5-11.1-6.8-14.4c-0.4,3.1-1.2,7.1-2.4,11.4
		c1.5,1.3,2.4,3.4,1.6,5.6c-2.7,7.7-9.7,13.8-22.2,13.8c-10.2,0-19-5.1-19-17.4c0-2.4,0.2-4.8,0.7-6.9
		c-3.9,13.7-13.9,24.4-27.3,24.4c-5.7,0-11-1.8-11-9.7c0-9.2,6.6-31.2,6.4-43.3c1.6,0,5.1-0.8,7.3-0.8c2.2,0,3.3,0.7,3.8,2.6
		c2.4-1.6,5.7-3.7,10.3-3.7c5.5,0,12.2,3.8,12.2,17.8c0,3.6-0.4,7.2-1.2,10.6c2.7-8.9,9.3-14.7,17.5-14.7c5.4,0,11.2,2.8,11.2,10.6
		c0,9-7.1,15.8-18.3,16.8c1.1,2.9,4.8,5.1,9.1,5.1c4.8,0,8.3-1.3,10.8-4.3c-1-1.1-1.5-2.9-0.8-5c2-6.6,4.4-15.4,4.9-22.2
		c4.9,0.3,8.6-0.1,12.7-0.8c3.4,7.5,10.2,15.2,11.4,23.2c1.2-6.2,3.2-12.8,3-21.4c2,0,5.3-0.8,6.6-0.8c2.9,0,4.2,2,4.2,5.8
		c0,6.3-4.3,16.7-4.3,22.1c0,1.9,0.9,3.4,2.6,3.4c1.6,0,3-1,4.2-2.6c-0.2-1.2-0.3-2.4-0.3-3.8c0-12.5,6.4-26,17.5-26
		c4.1,0,6.6,2,7.9,5.8c0.2-1.3,0.2-2.4,0.3-3.7c1.6,0,4.7-1,6.6-1c2.7,0,3.6,2.4,3.6,5.3c0,5.1-3.6,15.9-3.6,26.8
		c-0.1,15.3-7.3,21.8-17.9,21.8c-6.1,0-13.1-2.4-13.1-6.1c0-1.6,0.4-3.5,1.2-6c2.9,2,6.7,3.2,9.5,3.2c5.3,0,9.3-1.7,9.8-11.8
		C922.9,598.6,919.4,600.8,915.1,600.8z M891.2,552.5c0-4,3.2-7.9,7.8-7.9c3.6,0,5.2,2.2,5.2,4.7c0,4.2-3.3,7.9-7.9,7.9
		C892.7,557.2,891.2,555,891.2,552.5z M767,580c0,6-4.8,10.8-10.8,10.8s-10.8-4.8-10.8-10.8s4.8-10.8,10.8-10.8S767,574,767,580z
		 M505.3,635.8c-18,16.5-42.4,24.7-73.3,24.7c-41,0-75.5-15.4-103.6-46.3l39.9-57c9.9,9.9,19.8,17.3,29.8,22.4
		c10,5.1,18.5,7.6,25.6,7.6c6.3,0,11.3-1.9,14.8-5.7c3.5-3.8,5.3-9.4,5.3-16.7V460h-90.4v-69.5h178.8v33.1h-31.3v161.3h30
		C527.9,605.9,519.4,622.9,505.3,635.8z M601.7,503.1v69.1h-88.1V436.3h88.1h40.6c9.6,0,17-2.9,22.2-8.5c5.2-5.7,7.8-13.6,7.8-23.7
		c0-9.9-2.6-17.5-7.8-23c-5.2-5.4-12.6-8.2-22.2-8.2h-40.6h-88.1v-66.8h128.7c36.2,0,64.2,8.3,83.9,24.9
		c19.7,16.6,29.6,40,29.6,70.4c0,19.2-3.6,36-10.8,50.3s-17.7,25.6-31.3,34l42.6,70.3c0,0-0.1,0-0.1,0c-10.5,0-19.5,6.8-22.7,16.3
		h-0.1c0-0.7,0.1-1.5,0.1-2.2c0-20.9-15.4-22-18.5-22c-2.7,0-5.8,0.6-9.2,1.7l-0.6,0.2c-2.3-1.1-5-1.7-7.9-1.7
		c-2.3,0-4.3,0.4-5.7,0.7c-0.2,0-0.3,0.1-0.5,0.1h-5.2c-3-1.2-6.3-1.8-10-1.8c-2.2,0-4.4,0.2-6.5,0.7c-4.4-9.3-12.5-13.9-20.7-14.3
		l-14-30.4L601.7,503.1L601.7,503.1z M698.3,601.5c-3.5,0-6.2-1.3-8-3.7c-3.6,2.3-8.3,3.7-14.2,3.7c-10.2,0-19-5.1-19-17.4
		c0-2.4,0.2-4.8,0.7-6.9c-3.9,13.7-13.9,24.4-27.3,24.4c-5.7,0-11-1.8-11-9.7c0-9.2,6.6-31.2,6.4-43.3c1.6,0,5.1-0.8,7.3-0.8
		c2.2,0,3.3,0.7,3.8,2.6c2.4-1.6,5.7-3.7,10.3-3.7c5.5,0,12.2,3.8,12.2,17.8c0,3.6-0.4,7.2-1.2,10.6c2.7-8.9,9.3-14.7,17.5-14.7
		c5.4,0,11.2,2.8,11.2,10.6c0,9-7.1,15.8-18.3,16.8c1.1,2.9,4.8,5.1,9.1,5.1c4.2,0,7.4-1,9.8-3.2c0-0.7-0.1-1.5-0.1-2.3
		c0-9,4-18.3,4-25c1.4,0,3.6-0.8,5.5-0.8c3,0,4.6,1.6,4.6,4.7c0,5.1-3.2,13.8-3.2,21.1c0,2.8,0.5,4.7,2,4.7c5.8,0,9-18.8,9-29.7
		c2.1-0.7,4-1,5.2-1c3.8,0,5.3,2.4,5.3,8.8C720.2,584,711.2,601.5,698.3,601.5z M950.4,623.1c-10,13-23.5,22.7-40.4,29
		c-17,6.3-35.8,9.5-56.6,9.5c-23.5,0-47.3-3.9-71.2-11.6c-23.9-7.7-44.6-18.3-62.1-31.7l14.1-28.7c3.7,8.4,12.1,14.3,21.9,14.3
		c8.7,0,16.3-4.7,20.5-11.7c0.2,13.7,9.7,22.5,24.2,22.5c8.5,0,16.4-2.9,23-7.9c5.6,5,13.4,7.8,22.6,7.8c5.3,0,10.3-0.8,14.7-2.5
		c2.9,1.4,6.7,2.1,10.7,2.1c2.2,0,4.4-0.2,6.5-0.7l15.9,4.9c4.3,6.1,12.8,9.9,23.3,9.9c9.9,0,20.2-4,26.2-14.1
		c1.1-0.1,2.1-0.2,3-0.4c0.8-0.1,1.7-0.2,2.2-0.3l7.8-0.5C954.9,616.7,952.8,620,950.4,623.1z M1047.8,587.7
		c-2.9,7.6-7.9,13.8-16.8,13.8c-6.4,0-11.4-3.5-11.4-12c0-4.5,1.3-11.3,3.6-19.3c-2,0.5-5.2,0.5-7.3,0.7c0,2.1-0.5,6.5-1.8,11.3
		c1.4,1.3,2.3,3.4,1.6,5.6c-2.7,7.7-9.7,13.8-22.2,13.8c-5.6,0-10.7-1.5-14.2-4.9c-2.8,2.9-6.5,4.9-11.3,4.9
		c-6.8,0-10.8-3.8-10.8-11.1c0-6.1,2.7-13.4,2.7-16.6c0-2.6-1.4-3.3-2.8-3.3c-2.6,0-4.7,2.7-5.3,3.4c-2.6,11.6-3.6,21.8-3.5,26.5
		c-2.3,0.1-4.9,0.8-6.6,0.8c-3,0-4.3-2-4.3-6.1c0-8.3,5.3-21,4.9-32.9c2.4,0,4.8-0.8,6.6-0.8c2.2,0,3.4,1,3.9,3.3
		c1.2-1,5.3-4.4,10.1-4.4c4.2,0,8.4,2.6,8.4,9.4c0,5.6-3,14.8-3,19.4c0,2.1,0.7,3.6,2.3,3.6c1.8,0,3.3-1.3,4.6-3.3
		c-0.4-1.6-0.7-3.4-0.7-5.4c0-13.8,8-23.8,18.8-23.8c5.4,0,11.2,2.8,11.2,10.6c0,9-7.1,15.8-18.3,16.8c1.1,2.9,4.8,5.1,9.1,5.1
		c4.8,0,8.3-1.3,10.7-4.3c-1-1.1-1.5-2.9-0.8-5.1c2.1-6.6,2.9-15.1,2.6-20.8c6.6,0,21.2-0.6,27-2.1c1.4,0.9,2,2.5,2,4.1
		c0,1.8-1.2,3.7-2.3,4.6c-1.9,6.5-4,14.8-4,19.1c0,2.8,0.9,4.5,2.9,4.5c3.2,0,5.7-4,7.4-9.4C1042.3,578.9,1049.9,581.9,1047.8,587.7
		z M1193.9,572.2h-73.7l-104.8-135.9v112.9c-2.7,0.1-5.3,0.2-7.6,0.2h-3.7c-3.2-1.5-6.9-2.3-10.9-2.3c-6.1,0-11.8,1.8-16.5,5
		c-0.4-0.3-0.8-0.7-1.2-1c-2.7-11.4-7.5-21.4-14.3-29.8c-6.2-7.7-13.2-14.1-20.8-19.5l0.6-1.2l42.6-89.8l-9.5-6
		c-11.4-7.2-24.4-13.5-38.7-18.7v-80.1h73.7l105.2,136.7V306.1h18c-0.7,3.3-1.1,6.6-1.1,10.1c0.1,26.1,22.2,48.5,49.3,49.8
		c0.8,0,1.7,0.1,2.6,0.1c3.7,0,7.4-0.4,11-1.2L1193.9,572.2L1193.9,572.2z M1218.2,317.8c0,20.6-16.7,36.5-37.2,35.5
		c-20.5-1-37.2-17.7-37.3-37.2s16.6-35.5,37.2-35.5c12.4,0,24.8,0,37.2,0C1218.2,293,1218.2,305.4,1218.2,317.8z"/>
</g>
<g id="gota">
</g>
<g id="N">
</g>
<g id="S">
</g>
<g id="R">
</g>
<g id="J">
</g>
</svg>
